<svg xmlns="http://www.w3.org/2000/svg" xmlns:xlink="http://www.w3.org/1999/xlink" width="60" zoomAndPan="magnify" viewBox="0 0 45 44.999999" height="60" preserveAspectRatio="xMidYMid meet" version="1.0"><defs><clipPath id="id1"><path d="M 3.796875 1.964844 L 41.296875 1.964844 L 41.296875 37.964844 L 3.796875 37.964844 Z M 3.796875 1.964844 " clip-rule="nonzero"/></clipPath></defs><rect x="-4.5" width="54" fill="rgb(100%, 100%, 100%)" y="-4.5" height="53.999999" fill-opacity="1"/><rect x="-4.5" width="54" fill="rgb(100%, 100%, 100%)" y="-4.5" height="53.999999" fill-opacity="1"/><rect x="-4.5" width="54" fill="rgb(100%, 100%, 100%)" y="-4.5" height="53.999999" fill-opacity="1"/><path fill="rgb(25.099182%, 76.858521%, 65.879822%)" d="M 22.5 0 C 10.074219 0 0 10.074219 0 22.5 C 0 34.925781 10.074219 45 22.5 45 C 34.925781 45 45 34.925781 45 22.5 C 45 10.074219 34.925781 0 22.5 0 " fill-opacity="1" fill-rule="nonzero"/><g clip-path="url(#id1)"><path fill="rgb(100%, 100%, 100%)" d="M 22.546875 1.964844 C 21.648438 1.964844 20.917969 2.699219 20.917969 3.601562 C 20.917969 4.1875 21.230469 4.722656 21.734375 5.015625 L 21.734375 9.449219 C 20.742188 9.710938 19.929688 10.417969 19.539062 11.355469 C 16.792969 10.972656 14.046875 10.539062 11.28125 10.160156 C 11.242188 10.152344 11.203125 10.148438 11.164062 10.148438 C 10.808594 10.132812 10.484375 10.359375 10.367188 10.695312 L 3.84375 29.515625 C 3.816406 29.601562 3.800781 29.691406 3.800781 29.785156 C 3.800781 31.28125 4.757812 32.546875 6.097656 33.386719 C 7.441406 34.21875 9.207031 34.691406 11.136719 34.691406 C 13.066406 34.691406 14.832031 34.21875 16.171875 33.386719 C 17.515625 32.546875 18.472656 31.28125 18.472656 29.785156 C 18.472656 29.691406 18.457031 29.601562 18.429688 29.515625 L 12.347656 11.964844 C 14.664062 12.296875 16.992188 12.648438 19.328125 12.976562 C 19.515625 14.597656 20.886719 15.875 22.546875 15.875 C 23.902344 15.875 25.066406 15.035156 25.558594 13.847656 C 27.984375 14.1875 30.421875 14.5625 32.867188 14.90625 L 26.667969 32.789062 C 26.640625 32.875 26.625 32.964844 26.625 33.054688 C 26.625 34.550781 27.582031 35.820312 28.925781 36.660156 C 30.265625 37.492188 32.03125 37.964844 33.960938 37.964844 C 35.890625 37.964844 37.65625 37.492188 38.996094 36.660156 C 40.339844 35.820312 41.296875 34.550781 41.296875 33.054688 C 41.296875 32.964844 41.28125 32.875 41.253906 32.789062 L 34.730469 13.96875 C 34.625 13.667969 34.359375 13.457031 34.046875 13.421875 C 31.296875 13.050781 28.542969 12.613281 25.769531 12.226562 C 25.613281 10.882812 24.644531 9.78125 23.363281 9.449219 L 23.363281 5.019531 C 23.867188 4.726562 24.179688 4.1875 24.179688 3.601562 C 24.179688 2.699219 23.449219 1.964844 22.546875 1.964844 Z M 22.546875 10.964844 C 23.460938 10.964844 24.179688 11.6875 24.179688 12.601562 C 24.179688 13.515625 23.460938 14.238281 22.546875 14.238281 C 21.636719 14.238281 20.917969 13.515625 20.917969 12.601562 C 20.917969 11.6875 21.636719 10.964844 22.546875 10.964844 Z M 11.136719 13.457031 L 16.511719 28.964844 L 5.761719 28.964844 Z M 33.960938 16.730469 L 39.335938 32.238281 L 28.585938 32.238281 Z M 33.960938 16.730469 " fill-opacity="1" fill-rule="nonzero"/></g></svg>