<svg xmlns="http://www.w3.org/2000/svg" xmlns:xlink="http://www.w3.org/1999/xlink" width="60" zoomAndPan="magnify" viewBox="0 0 45 44.999999" height="60" preserveAspectRatio="xMidYMid meet" version="1.0"><defs><clipPath id="id1"><path d="M 3.371094 1.585938 L 41.621094 1.585938 L 41.621094 22.585938 L 3.371094 22.585938 Z M 3.371094 1.585938 " clip-rule="nonzero"/></clipPath><clipPath id="id2"><path d="M 2.621094 22.5 L 41.621094 22.5 L 41.621094 44.25 L 2.621094 44.25 Z M 2.621094 22.5 " clip-rule="nonzero"/></clipPath></defs><rect x="-4.5" width="54" fill="rgb(100%, 100%, 100%)" y="-4.5" height="53.999999" fill-opacity="1"/><rect x="-4.5" width="54" fill="rgb(100%, 100%, 100%)" y="-4.5" height="53.999999" fill-opacity="1"/><rect x="-4.5" width="54" fill="rgb(100%, 100%, 100%)" y="-4.5" height="53.999999" fill-opacity="1"/><path fill="rgb(79.998779%, 47.059631%, 89.408875%)" d="M 22.5 0 C 10.074219 0 0 10.074219 0 22.5 C 0 34.925781 10.074219 45 22.5 45 C 34.925781 45 45 34.925781 45 22.5 C 45 10.074219 34.925781 0 22.5 0 " fill-opacity="1" fill-rule="nonzero"/><g clip-path="url(#id1)"><path fill="rgb(100%, 100%, 100%)" d="M 18.847656 1.648438 C 19.039062 1.597656 19.355469 1.683594 19.449219 1.726562 C 19.710938 1.808594 19.695312 1.890625 19.863281 2.429688 C 19.878906 2.472656 19.90625 2.957031 19.945312 3.261719 C 19.980469 4.667969 20.800781 9.535156 20.878906 9.632812 C 20.878906 9.550781 20.898438 9.488281 20.984375 9.492188 C 20.988281 9.484375 20.996094 9.476562 21.003906 9.46875 L 21 9.488281 L 21.015625 9.480469 C 21.003906 9.492188 20.988281 9.5 20.988281 9.519531 C 21.023438 9.507812 21.054688 9.515625 21.089844 9.519531 C 21.089844 9.523438 21.09375 9.535156 21.09375 9.542969 C 21.097656 9.542969 21.109375 9.546875 21.117188 9.550781 C 21.121094 9.59375 21.125 9.652344 21.082031 9.679688 C 21.046875 9.703125 21.007812 9.746094 20.964844 9.714844 C 20.964844 9.71875 20.960938 9.730469 20.957031 9.734375 C 20.96875 9.769531 20.976562 9.808594 20.984375 9.847656 C 20.984375 9.867188 20.984375 9.882812 20.980469 9.902344 C 20.960938 9.910156 20.9375 9.910156 20.925781 9.925781 C 20.921875 9.96875 20.9375 10.011719 20.941406 10.054688 C 20.953125 10.09375 20.957031 10.144531 21.003906 10.152344 C 21.011719 10.207031 21.074219 10.214844 21.113281 10.242188 C 21.109375 10.246094 21.109375 10.253906 21.105469 10.257812 C 21.121094 10.253906 21.136719 10.253906 21.148438 10.257812 C 21.15625 10.273438 21.136719 10.277344 21.125 10.289062 C 21.128906 10.296875 21.132812 10.3125 21.132812 10.320312 C 21.332031 10.351562 21.566406 10.398438 21.679688 10.554688 C 21.683594 10.574219 21.6875 10.589844 21.691406 10.605469 C 21.71875 10.597656 21.75 10.59375 21.78125 10.59375 C 21.78125 10.597656 21.78125 10.609375 21.78125 10.617188 C 21.8125 10.601562 21.84375 10.59375 21.875 10.589844 C 21.898438 10.585938 21.902344 10.558594 21.917969 10.539062 C 21.933594 10.507812 21.960938 10.488281 21.988281 10.472656 C 22.003906 10.46875 22.023438 10.464844 22.039062 10.464844 C 22.074219 10.484375 22.117188 10.496094 22.15625 10.503906 C 22.132812 10.503906 22.089844 10.484375 22.089844 10.523438 C 22.144531 10.566406 22.222656 10.550781 22.269531 10.605469 C 22.28125 10.601562 22.292969 10.597656 22.308594 10.59375 C 22.308594 10.578125 22.308594 10.554688 22.308594 10.542969 C 22.296875 10.554688 22.289062 10.566406 22.292969 10.585938 C 22.269531 10.582031 22.257812 10.570312 22.253906 10.550781 C 22.210938 10.535156 22.164062 10.535156 22.121094 10.523438 C 22.171875 10.523438 22.222656 10.535156 22.273438 10.546875 C 22.28125 10.539062 22.289062 10.53125 22.296875 10.519531 C 22.308594 10.542969 22.320312 10.566406 22.332031 10.585938 C 22.34375 10.574219 22.351562 10.550781 22.371094 10.542969 C 22.402344 10.542969 22.414062 10.574219 22.425781 10.59375 C 22.945312 10.480469 23.0625 10.433594 23.109375 10.417969 C 23.125 10.394531 23.136719 10.367188 23.15625 10.347656 C 23.167969 10.316406 23.171875 10.285156 23.167969 10.253906 C 23.1875 10.234375 23.203125 10.214844 23.222656 10.195312 C 23.242188 10.191406 23.265625 10.1875 23.285156 10.183594 C 23.3125 10.199219 23.335938 10.222656 23.363281 10.234375 C 23.445312 10.203125 23.398438 10.097656 23.554688 10.128906 C 23.558594 10.152344 23.578125 10.144531 23.59375 10.148438 C 23.59375 10.15625 23.59375 10.171875 23.59375 10.175781 L 23.617188 10.179688 C 23.617188 10.171875 23.621094 10.160156 23.621094 10.152344 C 23.644531 10.179688 23.65625 10.214844 23.660156 10.25 C 23.851562 10.164062 32.226562 7.542969 32.253906 7.472656 C 32.300781 7.46875 32.335938 7.445312 32.523438 7.386719 C 32.542969 7.378906 32.558594 7.394531 32.574219 7.402344 C 32.601562 7.347656 32.566406 7.378906 32.875 7.28125 C 32.890625 7.269531 32.910156 7.289062 32.925781 7.296875 C 32.953125 7.273438 33.582031 7.09375 34.027344 6.953125 C 34.070312 6.9375 34.128906 6.9375 34.144531 6.886719 C 34.402344 6.808594 34.65625 6.730469 34.914062 6.652344 C 34.921875 6.660156 34.929688 6.671875 34.9375 6.679688 C 34.945312 6.675781 36.378906 6.257812 36.429688 6.25 C 36.441406 6.242188 36.449219 6.230469 36.460938 6.21875 C 36.464844 6.1875 36.472656 6.15625 36.480469 6.125 C 36.484375 6.15625 36.472656 6.199219 36.5 6.222656 C 36.5 6.222656 37.660156 5.921875 38.382812 5.757812 C 38.40625 5.789062 38.394531 5.828125 38.382812 5.859375 C 38.132812 6.046875 37.859375 6.203125 37.566406 6.308594 C 37.550781 6.3125 36.636719 6.605469 36.367188 6.671875 C 31.984375 7.878906 23.140625 10.574219 23.140625 10.574219 C 22.96875 10.625 22.914062 10.644531 22.609375 10.757812 C 22.589844 10.761719 22.585938 10.785156 22.574219 10.804688 C 22.566406 10.804688 22.554688 10.808594 22.546875 10.8125 L 22.554688 10.832031 C 22.546875 10.832031 22.535156 10.824219 22.527344 10.820312 C 22.511719 10.839844 22.488281 10.847656 22.46875 10.859375 C 22.46875 10.867188 22.472656 10.878906 22.472656 10.886719 C 22.46875 10.890625 22.460938 10.902344 22.457031 10.90625 C 22.445312 10.902344 22.429688 10.898438 22.417969 10.894531 C 22.414062 10.878906 22.410156 10.863281 22.398438 10.855469 C 22.378906 10.851562 22.359375 10.855469 22.339844 10.855469 C 22.332031 10.941406 22.351562 10.902344 22.277344 10.964844 C 22.277344 10.984375 22.273438 11.003906 22.273438 11.023438 C 22.257812 11.0625 22.21875 11.078125 22.171875 11.082031 C 22.160156 11.070312 22.144531 11.0625 22.125 11.058594 C 22.113281 11.042969 22.105469 11.027344 22.089844 11.015625 C 22.035156 11.023438 21.980469 11.042969 21.925781 11.054688 C 21.898438 11.066406 21.867188 11.042969 21.839844 11.050781 C 21.84375 11.066406 21.851562 11.085938 21.863281 11.097656 C 21.867188 11.125 21.84375 11.136719 21.828125 11.144531 C 21.800781 11.148438 21.773438 11.15625 21.753906 11.171875 C 21.8125 11.1875 22.097656 11.175781 22.167969 11.203125 C 22.171875 11.199219 22.179688 11.199219 22.183594 11.195312 C 24.800781 11.375 24.433594 11.09375 26.203125 11.660156 C 26.242188 11.675781 26.285156 11.691406 26.324219 11.710938 C 27.617188 12.1875 27.449219 12.101562 27.546875 12.222656 C 27.574219 12.21875 27.605469 12.203125 27.628906 12.222656 C 27.832031 12.324219 28.476562 13.046875 28.359375 13.121094 C 28.285156 13.125 28.207031 13.121094 28.128906 13.121094 C 28.132812 13.125 28.136719 13.136719 28.140625 13.140625 C 28.191406 13.164062 28.242188 13.1875 28.289062 13.214844 C 28.324219 13.253906 28.847656 13.667969 28.976562 13.808594 C 29.261719 14.066406 29.164062 14.136719 29.289062 14.191406 C 29.894531 14.273438 32.246094 14.636719 32.625 14.695312 C 32.648438 14.675781 32.5625 13.289062 32.585938 13.195312 C 32.59375 13.199219 32.601562 13.207031 32.609375 13.210938 C 32.605469 13.230469 32.675781 14.695312 32.675781 14.707031 C 33.027344 14.667969 33.492188 14.746094 33.609375 14.84375 C 33.621094 14.84375 36.15625 15.238281 36.210938 15.234375 C 36.648438 14.894531 38.089844 13.792969 38.109375 13.777344 C 37.820312 13.445312 37.914062 13.570312 37.863281 13.320312 C 37.851562 13.269531 37.898438 13.230469 37.9375 13.210938 C 37.960938 13.195312 37.992188 13.203125 38.015625 13.183594 C 38.007812 13.183594 37.988281 13.179688 37.980469 13.179688 C 38.015625 13.160156 38.054688 13.152344 38.089844 13.152344 C 38.089844 13.160156 38.085938 13.179688 38.082031 13.191406 C 38.089844 13.183594 38.097656 13.175781 38.101562 13.171875 C 38.113281 13.148438 38.398438 12.890625 38.417969 12.871094 C 40.757812 10.675781 40.308594 11.140625 40.6875 11.113281 C 40.746094 11.113281 40.800781 11.125 40.859375 11.132812 C 40.867188 11.125 40.875 11.117188 40.886719 11.109375 C 40.890625 11.097656 40.894531 11.085938 40.898438 11.074219 C 40.90625 11.070312 40.917969 11.070312 40.921875 11.070312 C 40.925781 11.0625 40.9375 11.050781 40.941406 11.042969 C 40.941406 11.039062 40.941406 11.035156 40.941406 11.03125 C 40.976562 11.027344 41.011719 11.027344 41.046875 11.027344 C 41.046875 11.035156 41.046875 11.042969 41.046875 11.050781 L 41.078125 11.050781 C 41.078125 11.054688 41.078125 11.066406 41.078125 11.070312 C 41.085938 11.070312 41.097656 11.070312 41.105469 11.070312 C 41.113281 11.09375 41.128906 11.113281 41.152344 11.117188 C 41.15625 11.132812 41.160156 11.148438 41.164062 11.164062 C 41.25 11.1875 41.480469 11.191406 41.519531 11.222656 C 41.621094 11.300781 41.441406 11.398438 41.472656 11.503906 C 41.453125 11.511719 41.4375 11.53125 41.433594 11.554688 C 41.4375 11.558594 41.449219 11.5625 41.457031 11.566406 C 41.445312 11.566406 41.433594 11.5625 41.421875 11.5625 C 41.386719 11.632812 40.410156 13.539062 40.359375 13.652344 C 40.316406 13.742188 41 15.253906 41 15.363281 C 40.941406 15.445312 40.960938 15.421875 40.765625 15.402344 C 40.753906 15.402344 39.59375 15.285156 39.460938 15.234375 C 39.355469 15.183594 39.269531 15.109375 39.183594 15.027344 C 39.160156 15.046875 39.136719 15.070312 39.125 15.101562 C 39.105469 15.132812 39.070312 15.144531 39.039062 15.128906 C 39.015625 15.148438 38.6875 15.820312 38.675781 15.847656 C 38.589844 15.996094 38.515625 16.28125 38.035156 16.558594 C 38.027344 16.558594 38.019531 16.5625 38.015625 16.5625 C 37.875 16.644531 37.546875 16.585938 37.355469 16.558594 C 37.371094 16.585938 39.0625 17.90625 39.144531 17.976562 C 39.441406 18.210938 39.664062 18.070312 39.746094 18.054688 C 39.832031 18.027344 39.921875 17.980469 40.011719 18.003906 C 40.019531 18.011719 40.03125 18.019531 40.039062 18.027344 C 40.039062 18.042969 40.039062 18.058594 40.039062 18.074219 C 39.96875 18.160156 40.050781 18.148438 39.929688 18.179688 C 39.925781 18.214844 39.96875 18.207031 39.992188 18.214844 C 40.054688 18.234375 40.121094 18.234375 40.1875 18.230469 C 40.1875 18.234375 40.1875 18.246094 40.1875 18.25 C 39.96875 18.246094 39.933594 18.179688 39.859375 18.222656 C 39.789062 18.257812 39.710938 18.273438 39.632812 18.261719 C 39.445312 18.179688 39.339844 18.269531 39.082031 18.0625 C 37.117188 16.511719 37.222656 16.558594 36.925781 16.550781 C 36.886719 16.574219 36.84375 16.539062 36.804688 16.546875 C 36.742188 16.507812 36.625 16.523438 36.496094 16.496094 C 36.476562 16.515625 35.511719 18.429688 35.503906 18.457031 C 35.5 18.511719 35.949219 19.601562 35.953125 19.613281 C 36.136719 20.066406 36.144531 20.0625 36.128906 20.113281 C 36.117188 20.125 36.105469 20.136719 36.09375 20.148438 C 36.054688 20.152344 34.8125 20.046875 34.601562 19.957031 C 34.335938 19.804688 34.417969 19.777344 33.207031 18.433594 C 33.167969 18.382812 33.117188 18.339844 33.097656 18.277344 C 33.082031 18.226562 33.085938 18.164062 33.128906 18.121094 C 33.136719 18.117188 34.640625 16.730469 34.644531 16.722656 C 34.375 16.699219 34.289062 16.695312 34.183594 16.621094 C 34.183594 16.609375 34.183594 16.59375 34.183594 16.582031 C 34.222656 16.566406 34.265625 16.558594 34.308594 16.558594 C 34.304688 16.519531 34.234375 16.296875 34.207031 16.257812 C 34.152344 16.242188 34.09375 16.25 34.039062 16.230469 C 34.027344 16.21875 34.019531 16.203125 34.007812 16.195312 C 33.804688 16.148438 34.074219 16.195312 33.582031 16.136719 C 33.554688 16.179688 33.582031 16.242188 33.558594 16.289062 C 33.523438 16.304688 33.488281 16.289062 33.453125 16.285156 C 33.417969 16.277344 33.410156 16.238281 33.394531 16.210938 C 33.378906 16.179688 33.363281 16.152344 33.347656 16.117188 C 33.21875 16.089844 32.679688 16.035156 32.648438 16.039062 C 32.613281 16.058594 32.582031 16.089844 32.542969 16.101562 C 32.476562 16.105469 32.414062 16.132812 32.351562 16.140625 C 32.21875 16.167969 31.8125 16.121094 31.769531 16.109375 C 31.421875 16.078125 31.472656 15.941406 31.425781 15.898438 C 31.394531 15.898438 30.84375 15.839844 30.816406 15.832031 C 30.792969 15.847656 30.777344 15.871094 30.757812 15.886719 C 30.679688 15.898438 30.46875 15.871094 30.4375 15.855469 C 30.410156 15.839844 30.390625 15.8125 30.371094 15.789062 C 30.316406 15.785156 29.300781 15.660156 29.265625 15.675781 C 29.042969 16.46875 28.835938 16.828125 28.644531 17.167969 C 28.617188 17.21875 28.578125 17.265625 28.566406 17.328125 C 28.394531 17.507812 28.308594 17.734375 27.789062 18.25 C 27.328125 18.726562 26.613281 19.109375 26.578125 19.136719 C 26.527344 19.160156 26.484375 19.191406 26.433594 19.210938 C 26.429688 19.214844 26.421875 19.222656 26.417969 19.226562 C 26.410156 19.226562 26.398438 19.226562 26.394531 19.226562 C 26.386719 19.234375 26.378906 19.242188 26.375 19.246094 C 26.359375 19.253906 26.34375 19.261719 26.328125 19.269531 C 26.324219 19.269531 26.3125 19.273438 26.308594 19.273438 C 26.148438 19.375 25.578125 19.59375 25.542969 19.597656 C 25.515625 19.613281 25.417969 19.640625 25.378906 19.660156 C 25.367188 19.660156 25.355469 19.664062 25.347656 19.664062 C 25.3125 19.683594 25.273438 19.683594 25.238281 19.703125 C 25.21875 19.707031 24.976562 19.769531 24.933594 19.792969 C 24.886719 19.792969 23.921875 20.003906 23.457031 19.925781 C 23.4375 19.929688 23.417969 19.933594 23.398438 19.929688 C 23.367188 19.964844 23.320312 19.992188 23.308594 20.039062 C 23.320312 20.046875 23.332031 20.050781 23.347656 20.054688 C 23.34375 20.0625 23.34375 20.078125 23.339844 20.085938 C 23.328125 20.085938 23.316406 20.085938 23.304688 20.085938 C 23.269531 20.101562 23.238281 20.121094 23.234375 20.160156 C 23.207031 20.160156 23.183594 20.160156 23.160156 20.160156 C 23.136719 20.179688 23.113281 20.195312 23.089844 20.207031 C 23.066406 20.21875 23.042969 20.222656 23.027344 20.246094 C 22.890625 20.449219 22.886719 20.488281 22.84375 20.582031 C 22.902344 20.578125 22.957031 20.601562 23.015625 20.59375 C 23.027344 20.605469 23.035156 20.617188 23.042969 20.628906 C 23.015625 20.671875 22.953125 20.808594 22.902344 20.878906 C 22.863281 20.875 22.824219 20.875 22.785156 20.878906 C 22.753906 21.121094 22.738281 21.117188 22.707031 21.164062 C 22.707031 21.183594 22.707031 21.199219 22.703125 21.21875 C 22.703125 21.222656 22.660156 21.503906 22.660156 21.515625 C 22.648438 21.589844 22.617188 21.671875 22.660156 21.742188 C 22.660156 21.746094 22.660156 21.753906 22.664062 21.761719 C 22.652344 21.777344 22.640625 21.796875 22.632812 21.816406 C 22.628906 21.835938 22.632812 21.863281 22.621094 21.882812 C 22.621094 21.929688 22.613281 21.972656 22.605469 22.019531 C 22.582031 22.0625 22.621094 22.101562 22.644531 22.136719 C 22.691406 22.132812 22.742188 22.144531 22.789062 22.125 C 22.808594 22.132812 22.824219 22.160156 22.84375 22.136719 C 22.875 22.128906 22.894531 22.15625 22.914062 22.175781 C 22.9375 22.179688 22.960938 22.179688 22.988281 22.1875 C 23.039062 22.195312 23.382812 22.191406 23.4375 22.234375 C 23.484375 22.277344 23.511719 22.351562 23.484375 22.414062 C 23.484375 22.425781 23.484375 22.433594 23.484375 22.445312 C 23.394531 22.585938 23.351562 22.492188 23.265625 22.539062 C 23.25 22.527344 23.234375 22.515625 23.21875 22.503906 C 22.964844 22.496094 23.078125 22.480469 22.949219 22.507812 C 22.886719 22.535156 22.824219 22.511719 22.757812 22.511719 C 22.746094 22.511719 21.699219 22.4375 21.691406 22.4375 C 21.652344 22.421875 21.613281 22.402344 21.578125 22.386719 C 21.550781 22.386719 20.710938 22.324219 20.699219 22.320312 C 20.695312 22.320312 19.179688 22.214844 19.175781 22.214844 C 19.167969 22.214844 18.316406 22.152344 18.300781 22.148438 C 18.21875 22.148438 18.140625 22.132812 18.0625 22.132812 C 18.050781 22.132812 17.457031 22.074219 17.40625 22.113281 C 17.390625 22.113281 17.378906 22.101562 17.371094 22.09375 C 16.441406 22.039062 16.542969 22.027344 16.46875 22.050781 C 16.464844 22.046875 16.453125 22.035156 16.449219 22.027344 C 16.273438 21.992188 16.160156 21.996094 15.972656 21.949219 C 15.894531 21.917969 15.789062 21.9375 15.734375 21.921875 C 15.609375 21.914062 15.539062 21.875 15.476562 21.875 C 15.464844 21.867188 15.453125 21.859375 15.445312 21.855469 C 15.410156 21.851562 15.351562 21.828125 15.324219 21.8125 C 15.320312 21.8125 15.308594 21.808594 15.304688 21.808594 C 15.265625 21.785156 15.21875 21.773438 15.183594 21.746094 C 15.179688 21.746094 15.167969 21.746094 15.164062 21.742188 C 15.117188 21.699219 14.980469 21.644531 14.726562 21.375 C 14.601562 21.25 14.058594 20.671875 13.828125 20.449219 C 13.820312 20.414062 13.839844 20.386719 13.867188 20.367188 C 13.878906 20.367188 13.886719 20.367188 13.898438 20.367188 C 14 20.441406 15.164062 21.179688 15.164062 21.179688 C 15.167969 21.179688 15.179688 21.179688 15.183594 21.183594 C 15.222656 21.222656 16.042969 21.640625 16.082031 21.65625 C 16.144531 21.660156 16.140625 21.675781 16.304688 21.691406 C 16.433594 21.734375 16.546875 21.640625 16.578125 21.625 C 16.59375 21.625 16.609375 21.625 16.621094 21.636719 C 16.648438 21.640625 16.699219 21.621094 16.707031 21.660156 C 16.742188 21.660156 16.777344 21.65625 16.808594 21.632812 C 16.816406 21.578125 16.824219 21.523438 16.820312 21.46875 C 16.847656 21.441406 16.8125 21.402344 16.824219 21.371094 C 16.832031 21.34375 16.832031 21.3125 16.832031 21.285156 C 16.84375 21.265625 16.851562 21.246094 16.863281 21.230469 C 16.859375 21.199219 16.898438 20.65625 16.902344 20.644531 C 16.921875 20.566406 16.882812 20.546875 16.886719 20.46875 C 16.84375 20.421875 16.773438 20.417969 16.710938 20.421875 C 16.710938 20.421875 15.691406 20.34375 15.652344 20.34375 C 15.613281 20.335938 14.796875 20.28125 14.777344 20.277344 C 14.652344 20.261719 14.207031 20.257812 14.226562 20.035156 C 14.28125 19.988281 14.269531 19.949219 14.597656 19.976562 C 16.636719 20.105469 16.855469 20.144531 16.957031 20.136719 C 16.984375 19.945312 17.066406 19.742188 17.070312 19.710938 C 17.085938 19.683594 17.148438 19.496094 17.253906 19.363281 C 17.25 19.238281 17.226562 19.253906 17.199219 19.246094 C 17.199219 19.238281 17.199219 19.226562 17.199219 19.21875 C 17.21875 19.214844 17.238281 19.210938 17.253906 19.207031 C 17.25 19.171875 17.238281 19.136719 17.242188 19.101562 C 17.09375 19.058594 16.828125 19.039062 16.679688 19.015625 C 16.636719 19.011719 16.589844 18.992188 16.550781 19.015625 C 16.542969 19.007812 16.539062 19 16.53125 18.988281 C 16.457031 18.992188 16.015625 18.917969 15.871094 18.914062 C 15.867188 18.957031 15.855469 19.003906 15.859375 19.050781 C 15.8125 19.128906 15.90625 19.101562 15.480469 19.054688 C 15.460938 19.054688 15.449219 19.042969 15.441406 19.027344 C 15.4375 18.96875 15.425781 18.910156 15.425781 18.851562 C 15.414062 18.832031 15.183594 18.804688 15.023438 18.765625 C 14.664062 18.6875 14.289062 18.554688 14.289062 18.554688 C 14.253906 18.539062 14.222656 18.515625 14.191406 18.492188 C 13.894531 18.390625 14.050781 18.457031 13.757812 18.324219 C 12.835938 17.863281 13.015625 17.847656 12.941406 17.9375 C 12.933594 17.9375 12.917969 17.9375 12.910156 17.9375 L 12.910156 17.910156 C 12.917969 17.898438 12.925781 17.886719 12.9375 17.875 C 12.917969 17.84375 12.886719 17.832031 12.859375 17.816406 C 12.773438 17.769531 12.714844 17.6875 12.625 17.652344 C 12.546875 17.707031 12.460938 17.757812 12.378906 17.804688 C 12.355469 17.8125 12.332031 17.816406 12.308594 17.816406 C 12.308594 17.808594 12.308594 17.796875 12.304688 17.789062 C 12.339844 17.757812 12.367188 17.71875 12.402344 17.6875 C 12.515625 17.558594 12.53125 17.578125 12.496094 17.542969 C 12.496094 17.542969 12.265625 17.359375 12.265625 17.359375 C 12.246094 17.34375 12.222656 17.359375 12.199219 17.363281 C 12.109375 17.371094 12.019531 17.394531 11.933594 17.371094 C 11.722656 17.242188 11.757812 17.261719 11.589844 17.207031 C 11.59375 17.1875 11.589844 17.15625 11.617188 17.15625 C 11.839844 17.230469 11.71875 17.210938 11.910156 17.222656 C 11.96875 17.257812 11.96875 17.214844 12.023438 17.175781 C 12.027344 17.164062 12.035156 17.152344 12.039062 17.140625 C 10.910156 15.996094 11.949219 15.082031 11.953125 14.980469 C 12 14.910156 12.011719 14.820312 12.039062 14.738281 C 12.039062 14.738281 12.144531 14.402344 12.144531 14.402344 C 12.175781 14.375 12.214844 14.367188 12.253906 14.355469 C 12.269531 14.347656 12.285156 14.363281 12.296875 14.371094 C 12.277344 14.390625 12.253906 14.40625 12.230469 14.425781 C 12.226562 14.460938 12.214844 14.5 12.242188 14.527344 C 12.269531 14.519531 12.261719 14.488281 12.273438 14.46875 C 12.339844 14.320312 13.808594 13.5 13.996094 13.238281 C 14.007812 13.238281 14.019531 13.242188 14.03125 13.242188 C 14.042969 13.253906 14.054688 13.265625 14.070312 13.277344 C 14.0625 13.300781 14.050781 13.320312 14.03125 13.335938 C 14.0625 13.332031 14.082031 13.359375 14.09375 13.386719 C 14.105469 13.378906 14.199219 13.328125 14.21875 13.320312 C 14.246094 13.292969 14.402344 13.203125 14.425781 13.199219 C 14.441406 13.175781 14.46875 13.171875 14.488281 13.15625 C 14.507812 13.144531 14.527344 13.128906 14.546875 13.125 L 14.546875 13.117188 C 14.5625 13.113281 14.578125 13.109375 14.59375 13.105469 C 14.640625 13.066406 14.699219 13.042969 14.753906 13.015625 C 14.761719 13.011719 14.765625 13.003906 14.773438 12.996094 C 14.820312 12.980469 15.074219 12.839844 15.148438 12.816406 C 15.15625 12.808594 15.160156 12.804688 15.167969 12.796875 C 15.214844 12.789062 15.257812 12.757812 15.304688 12.75 C 15.304688 12.742188 15.308594 12.726562 15.308594 12.71875 C 15.226562 12.738281 14.882812 12.914062 14.855469 12.921875 C 14.84375 12.925781 11.570312 13.667969 11.464844 13.675781 C 11.449219 13.683594 9.699219 14.058594 9.636719 14.066406 C 9.625 14.078125 9.621094 14.09375 9.609375 14.113281 C 9.59375 14.117188 9.355469 14.175781 9.3125 14.171875 C 9.300781 14.164062 9.289062 14.152344 9.277344 14.148438 C 9.257812 14.203125 9.300781 14.183594 9.113281 14.222656 C 8.960938 14.257812 8.960938 14.257812 8.929688 14.226562 C 8.929688 14.226562 8.148438 14.402344 7.714844 14.5 C 7.71875 14.507812 7.71875 14.523438 7.71875 14.53125 C 7.679688 14.554688 6.972656 14.714844 6.921875 14.71875 C 6.914062 14.707031 6.90625 14.699219 6.894531 14.6875 C 6.816406 14.703125 5.441406 15.007812 5.394531 15.023438 C 5.371094 15.066406 5.390625 15.117188 5.394531 15.164062 C 5.375 15.136719 5.371094 15.105469 5.363281 15.078125 C 5.285156 15.007812 5.378906 15.046875 4.828125 15.132812 C 4.828125 15.132812 3.417969 15.402344 3.417969 15.402344 C 3.390625 15.371094 3.378906 15.328125 3.371094 15.289062 C 3.371094 15.25 3.402344 15.226562 3.429688 15.203125 C 3.839844 14.78125 4.125 14.777344 5.007812 14.503906 C 5.164062 14.472656 5.621094 14.351562 5.777344 14.320312 C 5.8125 14.308594 5.851562 14.304688 5.882812 14.289062 C 5.882812 14.289062 14.992188 12.292969 15.121094 12.261719 C 15.125 12.257812 15.128906 12.25 15.132812 12.246094 C 15.066406 12.175781 14.726562 11.867188 14.65625 11.785156 C 14.679688 11.699219 15.1875 12.132812 15.34375 12.207031 C 15.40625 12.207031 18.175781 11.59375 18.386719 11.507812 C 18.375 11.484375 18.382812 11.460938 18.394531 11.4375 C 18.40625 11.445312 18.421875 11.449219 18.433594 11.453125 C 18.429688 11.425781 18.421875 11.402344 18.417969 11.375 C 18.402344 11.375 18.390625 11.375 18.375 11.375 C 18.351562 11.398438 18.34375 11.429688 18.328125 11.457031 C 18.308594 11.476562 18.285156 11.488281 18.261719 11.503906 C 18.203125 11.515625 18.148438 11.484375 18.117188 11.433594 C 18.085938 11.296875 18.15625 11.289062 18.21875 11.273438 C 18.214844 11.277344 18.214844 11.289062 18.214844 11.296875 C 18.234375 11.296875 18.253906 11.296875 18.273438 11.300781 C 18.304688 11.320312 18.296875 11.320312 18.367188 11.34375 C 18.386719 11.332031 18.410156 11.324219 18.429688 11.3125 C 18.484375 11.238281 18.519531 11.257812 18.554688 11.316406 C 18.566406 11.324219 18.578125 11.332031 18.589844 11.34375 C 18.59375 11.363281 18.597656 11.386719 18.597656 11.410156 C 18.617188 11.402344 18.640625 11.394531 18.660156 11.390625 C 18.652344 11.414062 18.65625 11.4375 18.667969 11.460938 C 18.859375 11.445312 19.273438 11.273438 19.390625 11.265625 C 19.390625 11.226562 19.378906 11.1875 19.402344 11.15625 C 19.414062 11.160156 19.421875 11.164062 19.433594 11.171875 C 19.441406 11.164062 19.449219 11.15625 19.460938 11.148438 C 19.476562 11.144531 19.492188 11.140625 19.511719 11.136719 C 19.507812 11.140625 19.503906 11.148438 19.5 11.152344 C 19.507812 11.160156 19.515625 11.167969 19.527344 11.175781 C 19.542969 11.171875 19.5625 11.167969 19.582031 11.167969 C 19.59375 11.15625 19.605469 11.144531 19.617188 11.132812 C 19.617188 11.105469 19.625 11.078125 19.644531 11.058594 C 19.65625 11.066406 19.664062 11.074219 19.671875 11.082031 C 19.683594 11.078125 19.695312 11.070312 19.703125 11.0625 C 19.707031 11.085938 19.707031 11.101562 19.699219 11.121094 C 19.710938 11.128906 19.722656 11.140625 19.738281 11.132812 C 19.78125 11.121094 19.824219 11.128906 19.867188 11.117188 C 19.894531 11.109375 19.921875 11.117188 19.949219 11.125 C 19.984375 11.15625 20.019531 11.1875 20.039062 11.230469 C 20.0625 11.183594 20.019531 11.148438 20.003906 11.105469 C 20.015625 11.109375 20.035156 11.113281 20.046875 11.117188 C 20.039062 11.09375 20.035156 11.070312 20.027344 11.046875 C 20.011719 11.050781 20 11.054688 19.988281 11.058594 C 19.96875 11.039062 19.945312 11.027344 19.921875 11.019531 C 19.949219 11.019531 19.980469 11.015625 20.007812 11.027344 C 20.085938 10.980469 19.996094 10.941406 20.144531 10.765625 C 20.308594 10.550781 20.550781 10.433594 20.566406 10.417969 C 20.5625 10.394531 20.558594 10.375 20.554688 10.355469 C 20.582031 10.332031 20.621094 10.351562 20.644531 10.320312 C 20.644531 10.277344 20.621094 10.242188 20.621094 10.199219 C 20.601562 10.164062 20.589844 10.128906 20.574219 10.09375 C 20.570312 10.09375 20.558594 10.09375 20.550781 10.09375 C 20.542969 10.105469 20.535156 10.117188 20.523438 10.125 C 20.488281 10.117188 20.441406 10.101562 20.429688 10.0625 C 20.386719 10 20.414062 10.007812 20.308594 10.066406 C 20.179688 10.003906 20.203125 10 20.183594 9.921875 C 20.1875 9.890625 20.195312 9.855469 20.226562 9.835938 C 20.261719 9.816406 20.320312 9.804688 20.347656 9.84375 C 20.355469 9.84375 20.367188 9.839844 20.375 9.835938 C 20.390625 9.84375 20.40625 9.851562 20.417969 9.855469 C 20.371094 9.722656 19.992188 9.605469 19.933594 9.582031 C 19.699219 8.871094 19.109375 5.855469 19.003906 5.320312 C 18.976562 5.320312 18.945312 5.320312 18.917969 5.320312 C 18.914062 5.269531 18.898438 5.214844 18.890625 5.164062 C 18.914062 5.152344 18.9375 5.140625 18.957031 5.125 C 18.933594 5.125 18.90625 5.125 18.882812 5.128906 C 18.875 5.074219 18.859375 5.023438 18.851562 4.96875 C 18.871094 4.949219 18.878906 4.949219 18.929688 4.929688 C 18.925781 4.90625 18.820312 4.277344 18.816406 4.25 C 18.792969 4.214844 18.742188 4.265625 18.71875 4.238281 C 18.691406 4.09375 18.671875 3.949219 18.644531 3.804688 C 18.675781 3.789062 18.710938 3.777344 18.742188 3.757812 C 18.71875 3.714844 18.640625 2.960938 18.640625 2.914062 C 18.527344 2.902344 18.421875 2.957031 18.308594 2.964844 C 18.367188 2.902344 18.554688 2.933594 18.621094 2.847656 C 18.65625 1.589844 18.652344 1.738281 18.738281 1.691406 C 18.777344 1.683594 18.8125 1.667969 18.847656 1.648438 M 19.066406 11.640625 C 18.960938 11.667969 18.855469 11.6875 18.753906 11.71875 C 18.753906 11.738281 18.757812 11.757812 18.757812 11.777344 C 18.726562 11.8125 18.675781 11.8125 18.640625 11.832031 C 18.59375 11.859375 18.535156 11.828125 18.496094 11.871094 C 18.484375 11.863281 18.472656 11.859375 18.460938 11.851562 C 18.390625 12.007812 18.273438 11.949219 18.234375 11.894531 C 18.195312 11.90625 17.941406 12.007812 17.929688 12.046875 C 17.929688 12.046875 18.117188 12.019531 19.1875 11.949219 C 19.230469 11.945312 19.28125 11.953125 19.324219 11.945312 C 19.472656 11.863281 19.613281 11.773438 19.761719 11.6875 C 19.746094 11.652344 19.710938 11.628906 19.671875 11.625 C 19.632812 11.617188 19.589844 11.59375 19.554688 11.617188 C 19.539062 11.636719 19.539062 11.675781 19.507812 11.675781 C 19.484375 11.640625 19.472656 11.605469 19.464844 11.5625 C 19.335938 11.605469 19.199219 11.617188 19.066406 11.640625 M 18.101562 19.210938 C 18.082031 19.21875 18.0625 19.21875 18.039062 19.21875 C 18.050781 19.242188 18.054688 19.265625 18.054688 19.289062 C 18.027344 19.304688 17.996094 19.3125 17.96875 19.324219 C 17.941406 19.300781 17.898438 19.3125 17.859375 19.308594 C 17.828125 19.328125 17.773438 19.328125 17.757812 19.371094 C 17.753906 19.371094 17.746094 19.371094 17.742188 19.371094 C 17.738281 19.398438 17.714844 19.414062 17.6875 19.410156 C 17.683594 19.433594 17.652344 19.421875 17.632812 19.425781 C 17.511719 19.503906 17.597656 19.417969 17.488281 19.535156 C 17.488281 19.539062 17.492188 19.554688 17.492188 19.558594 C 17.46875 19.582031 17.457031 19.609375 17.445312 19.636719 C 17.414062 19.644531 17.414062 19.683594 17.414062 19.710938 C 17.390625 19.742188 17.367188 19.773438 17.347656 19.808594 C 17.351562 19.808594 17.359375 19.816406 17.363281 19.820312 C 17.339844 19.84375 17.292969 19.933594 17.316406 19.953125 C 17.3125 19.957031 17.300781 19.964844 17.296875 19.96875 C 17.289062 20.007812 17.277344 20.046875 17.269531 20.089844 C 17.273438 20.105469 17.28125 20.132812 17.253906 20.136719 C 17.253906 20.144531 17.253906 20.15625 17.253906 20.171875 C 19.292969 20.3125 22.285156 20.5625 22.371094 20.542969 C 22.664062 20.585938 22.429688 20.609375 22.726562 20.15625 C 22.738281 20.136719 22.753906 20.121094 22.761719 20.097656 C 22.761719 19.984375 22.734375 20.003906 22.707031 19.988281 C 22.71875 19.96875 22.742188 19.96875 22.761719 19.964844 C 22.757812 19.921875 22.753906 19.878906 22.738281 19.839844 C 22.632812 19.835938 22.53125 19.804688 22.429688 19.804688 C 22.417969 19.816406 22.40625 19.832031 22.394531 19.847656 C 22.363281 19.84375 22.339844 19.820312 22.324219 19.792969 C 22.128906 19.75 19.617188 19.398438 19.273438 19.390625 C 19.273438 19.386719 19.269531 19.375 19.269531 19.371094 C 19.238281 19.371094 19.203125 19.371094 19.167969 19.371094 C 19.164062 19.398438 19.148438 19.429688 19.167969 19.457031 C 19.160156 19.464844 19.152344 19.472656 19.144531 19.484375 C 19.140625 19.496094 19.140625 19.511719 19.128906 19.519531 C 19.003906 19.527344 19.042969 19.398438 18.941406 19.351562 C 18.929688 19.347656 18.917969 19.347656 18.910156 19.347656 C 18.902344 19.34375 18.894531 19.332031 18.890625 19.324219 C 18.867188 19.328125 18.820312 19.335938 18.757812 19.308594 C 18.730469 19.304688 18.707031 19.304688 18.683594 19.304688 C 18.675781 19.300781 18.667969 19.285156 18.664062 19.28125 C 18.648438 19.28125 18.632812 19.285156 18.617188 19.289062 C 18.585938 19.277344 18.546875 19.289062 18.507812 19.28125 C 18.507812 19.277344 18.503906 19.269531 18.5 19.265625 C 18.457031 19.261719 18.414062 19.265625 18.367188 19.261719 C 18.367188 19.253906 18.363281 19.246094 18.359375 19.238281 C 18.351562 19.238281 18.339844 19.242188 18.328125 19.242188 C 18.316406 19.25 18.296875 19.253906 18.28125 19.242188 C 18.257812 19.238281 18.234375 19.238281 18.207031 19.238281 C 18.203125 19.234375 18.191406 19.222656 18.1875 19.21875 C 18.167969 19.21875 18.148438 19.21875 18.132812 19.210938 C 18.128906 19.210938 18.121094 19.214844 18.117188 19.214844 C 18.113281 19.214844 18.105469 19.210938 18.101562 19.210938 M 17.21875 20.503906 C 17.222656 20.519531 17.226562 20.539062 17.230469 20.554688 C 17.199219 20.582031 17.1875 20.628906 17.207031 20.664062 C 17.191406 20.699219 17.164062 21.191406 17.164062 21.203125 C 17.15625 21.253906 17.171875 21.304688 17.199219 21.34375 C 17.152344 21.417969 17.175781 21.375 17.164062 21.582031 C 17.15625 21.605469 17.183594 21.609375 17.199219 21.621094 C 17.195312 21.640625 17.175781 21.648438 17.167969 21.667969 C 17.171875 21.683594 17.183594 21.695312 17.195312 21.710938 C 17.210938 21.707031 17.226562 21.699219 17.242188 21.691406 C 17.285156 21.664062 17.335938 21.699219 17.382812 21.6875 C 17.382812 21.699219 17.382812 21.714844 17.382812 21.726562 C 17.394531 21.734375 17.402344 21.738281 17.410156 21.75 C 17.445312 21.746094 17.476562 21.761719 17.5 21.789062 C 17.511719 21.789062 21.925781 22.140625 22.195312 22.074219 C 22.21875 22.054688 22.253906 22.039062 22.261719 22.003906 C 22.300781 21.808594 22.277344 21.707031 22.335938 21.632812 C 22.367188 21.457031 22.390625 21.28125 22.417969 21.105469 C 22.351562 21.078125 22.339844 21 22.300781 20.949219 C 22.273438 20.914062 22.261719 20.875 22.253906 20.835938 C 22.242188 20.832031 17.378906 20.464844 17.257812 20.460938 C 17.234375 20.480469 17.234375 20.484375 17.21875 20.503906 Z M 17.21875 20.503906 " fill-opacity="1" fill-rule="nonzero"/></g><path fill="rgb(100%, 100%, 100%)" d="M 19.535156 11.128906 C 19.539062 11.132812 19.539062 11.132812 19.535156 11.128906 Z M 19.535156 11.128906 " fill-opacity="1" fill-rule="nonzero"/><g clip-path="url(#id2)"><path fill="rgb(100%, 100%, 100%)" d="M 39.125 29.1875 C 40.1875 29.609375 41.621094 29.609375 41.621094 30.769531 C 41.621094 33.503906 30.199219 35.136719 29.773438 35.136719 L 26 43.296875 C 25.734375 43.925781 25.363281 44.085938 24.9375 44.136719 L 23.714844 44.242188 L 23.714844 38.558594 L 21.324219 36.453125 C 21.058594 36.453125 19.515625 36.714844 16.328125 36.714844 C 12.609375 36.714844 11.597656 36.558594 11.332031 36.558594 L 10.910156 38.347656 C 10.855469 38.664062 9.953125 38.820312 9.792969 38.609375 L 7.878906 36.082031 C 7.507812 36.082031 6.550781 35.980469 6.550781 35.664062 C 6.550781 35.242188 6.710938 35.085938 6.921875 34.980469 L 2.886719 31.242188 C 2.621094 30.980469 3.578125 30.453125 4.425781 30.875 L 8.359375 32.714844 L 8.09375 29.664062 L 8.996094 29.507812 C 9.3125 29.453125 10.007812 29.925781 10.21875 30.136719 L 12.980469 33.085938 L 17.761719 32.1875 L 15.53125 29.925781 L 5.066406 23.402344 L 5.96875 22.714844 C 5.96875 22.714844 6.179688 22.507812 6.921875 22.507812 L 27.699219 30.507812 L 34.183594 29.296875 C 34.449219 29.242188 35.5625 28.613281 36.890625 28.613281 C 38.328125 28.613281 38.328125 28.875 39.125 29.1875 " fill-opacity="1" fill-rule="nonzero"/></g></svg>