<svg xmlns="http://www.w3.org/2000/svg" xmlns:xlink="http://www.w3.org/1999/xlink" width="60" zoomAndPan="magnify" viewBox="0 0 45 44.999999" height="60" preserveAspectRatio="xMidYMid meet" version="1.0"><defs><clipPath id="id1"><path d="M 5.621094 25.746094 L 16.546875 25.746094 L 16.546875 36.773438 L 5.621094 36.773438 Z M 5.621094 25.746094 " clip-rule="nonzero"/></clipPath><clipPath id="id2"><path d="M 28 8.300781 L 34 8.300781 L 34 14 L 28 14 Z M 28 8.300781 " clip-rule="nonzero"/></clipPath><clipPath id="id3"><path d="M 8.191406 14 L 39.367188 14 L 39.367188 36.773438 L 8.191406 36.773438 Z M 8.191406 14 " clip-rule="nonzero"/></clipPath></defs><rect x="-4.5" width="54" fill="rgb(100%, 100%, 100%)" y="-4.5" height="53.999999" fill-opacity="1"/><rect x="-4.5" width="54" fill="rgb(100%, 100%, 100%)" y="-4.5" height="53.999999" fill-opacity="1"/><rect x="-4.5" width="54" fill="rgb(100%, 100%, 100%)" y="-4.5" height="53.999999" fill-opacity="1"/><path fill="rgb(73.329163%, 65.879822%, 65.098572%)" d="M 22.5 0 C 10.074219 0 0 10.074219 0 22.5 C 0 34.925781 10.074219 45 22.5 45 C 34.925781 45 45 34.925781 45 22.5 C 45 10.074219 34.925781 0 22.5 0 " fill-opacity="1" fill-rule="nonzero"/><g clip-path="url(#id1)"><path fill="rgb(100%, 100%, 100%)" d="M 11.085938 33.851562 C 9.679688 33.851562 8.535156 32.703125 8.535156 31.292969 C 8.535156 29.882812 9.679688 28.734375 11.085938 28.734375 C 12.488281 28.734375 13.632812 29.882812 13.632812 31.292969 C 13.632812 32.703125 12.488281 33.851562 11.085938 33.851562 Z M 11.085938 25.808594 C 8.066406 25.808594 5.621094 28.265625 5.621094 31.292969 C 5.621094 34.320312 8.066406 36.773438 11.085938 36.773438 C 14.101562 36.773438 16.546875 34.320312 16.546875 31.292969 C 16.546875 28.265625 14.101562 25.808594 11.085938 25.808594 " fill-opacity="1" fill-rule="nonzero"/></g><g clip-path="url(#id2)"><path fill="rgb(100%, 100%, 100%)" d="M 30.773438 13.832031 C 32.289062 13.832031 33.515625 12.601562 33.515625 11.082031 C 33.515625 9.5625 32.289062 8.328125 30.773438 8.328125 C 29.261719 8.328125 28.03125 9.5625 28.03125 11.082031 C 28.03125 12.601562 29.261719 13.832031 30.773438 13.832031 " fill-opacity="1" fill-rule="nonzero"/></g><g clip-path="url(#id3)"><path fill="rgb(100%, 100%, 100%)" d="M 30.871094 32.386719 C 28.59375 32.386719 26.742188 30.53125 26.742188 28.246094 C 26.742188 25.960938 28.59375 24.105469 30.871094 24.105469 C 33.144531 24.105469 34.996094 25.960938 34.996094 28.246094 C 34.996094 30.53125 33.144531 32.386719 30.871094 32.386719 Z M 24.03125 20.691406 L 24.363281 20.355469 L 24.78125 20.691406 Z M 33.011719 20 L 33.542969 17.125 C 33.621094 16.707031 33.34375 16.304688 32.925781 16.226562 L 32.578125 16.164062 C 32.160156 16.085938 31.761719 16.363281 31.683594 16.78125 L 31.140625 19.730469 C 31.101562 19.730469 31.0625 19.726562 31.023438 19.726562 L 31.671875 14.191406 C 31.386719 14.273438 31.085938 14.320312 30.773438 14.320312 C 30.296875 14.320312 29.84375 14.214844 29.433594 14.023438 L 28.121094 17.238281 L 24.800781 17.652344 C 24.269531 17.722656 23.890625 18.207031 23.957031 18.742188 C 23.960938 18.757812 23.96875 18.773438 23.96875 18.792969 L 23.285156 18.242188 L 22.675781 19.003906 L 23.601562 19.746094 L 22.65625 20.691406 L 13.632812 20.691406 L 13.632812 18.011719 L 13.148438 18.011719 L 13.148438 16.304688 L 12.175781 16.304688 L 12.175781 18.011719 L 11.691406 18.011719 L 11.691406 20.691406 L 11.207031 20.691406 C 9.597656 20.691406 8.292969 22 8.292969 23.617188 L 8.292969 26.023438 C 9.125 25.578125 10.074219 25.320312 11.085938 25.320312 C 13.546875 25.320312 15.664062 26.832031 16.566406 28.976562 L 21.925781 28.976562 C 21.90625 28.734375 21.886719 28.492188 21.886719 28.246094 C 21.886719 25.085938 23.519531 22.300781 25.980469 20.691406 L 25.3125 20.691406 L 25.710938 20.191406 L 24.964844 19.589844 C 24.992188 19.589844 25.015625 19.589844 25.042969 19.589844 L 28.925781 19.101562 C 29.003906 19.089844 29.078125 19.074219 29.148438 19.046875 L 29.046875 19.917969 C 25.230469 20.757812 22.375 24.164062 22.375 28.246094 C 22.375 32.957031 26.175781 36.773438 30.871094 36.773438 C 35.5625 36.773438 39.367188 32.957031 39.367188 28.246094 C 39.367188 24.28125 36.664062 20.957031 33.011719 20 " fill-opacity="1" fill-rule="nonzero"/></g></svg>