<svg xmlns="http://www.w3.org/2000/svg" xmlns:xlink="http://www.w3.org/1999/xlink" width="60" zoomAndPan="magnify" viewBox="0 0 45 44.999999" height="60" preserveAspectRatio="xMidYMid meet" version="1.0"><defs><clipPath id="id1"><path d="M 10 7 L 35.789062 7 L 35.789062 40.5 L 10 40.5 Z M 10 7 " clip-rule="nonzero"/></clipPath></defs><rect x="-4.5" width="54" fill="rgb(100%, 100%, 100%)" y="-4.5" height="53.999999" fill-opacity="1"/><rect x="-4.5" width="54" fill="rgb(100%, 100%, 100%)" y="-4.5" height="53.999999" fill-opacity="1"/><rect x="-4.5" width="54" fill="rgb(100%, 100%, 100%)" y="-4.5" height="53.999999" fill-opacity="1"/><path fill="rgb(100%, 74.119568%, 34.899902%)" d="M 22.5 0 C 10.074219 0 0 10.074219 0 22.5 C 0 34.925781 10.074219 45 22.5 45 C 34.925781 45 45 34.925781 45 22.5 C 45 10.074219 34.925781 0 22.5 0 " fill-opacity="1" fill-rule="nonzero"/><g clip-path="url(#id1)"><path fill="rgb(100%, 100%, 100%)" d="M 35.242188 12.035156 C 34.910156 11.847656 34.554688 11.84375 34.449219 12.023438 L 30.917969 18.226562 C 30.757812 18.253906 30.539062 18.210938 30.328125 18.09375 C 30.117188 17.976562 29.964844 17.8125 29.90625 17.664062 L 33.441406 11.464844 C 33.542969 11.285156 33.355469 10.988281 33.019531 10.800781 C 32.6875 10.617188 32.332031 10.613281 32.230469 10.792969 L 28.707031 16.972656 C 28.546875 17.015625 28.3125 16.972656 28.085938 16.847656 C 27.917969 16.753906 27.789062 16.632812 27.710938 16.515625 L 31.273438 10.261719 C 31.378906 10.082031 31.191406 9.785156 30.855469 9.597656 C 30.523438 9.414062 30.167969 9.410156 30.0625 9.589844 L 28.371094 12.5625 L 26.304688 16.1875 L 26.121094 16.511719 C 25.253906 18.035156 25.488281 19.835938 26.59375 20.835938 L 22.578125 27.511719 L 22.386719 19.671875 C 22.386719 19.617188 22.386719 19.5625 22.386719 19.511719 C 24.285156 19.035156 25.734375 16.445312 25.734375 13.324219 C 25.734375 9.859375 23.953125 7.054688 21.753906 7.054688 C 19.558594 7.054688 17.777344 9.859375 17.777344 13.324219 C 17.777344 16.445312 19.226562 19.035156 21.125 19.511719 C 21.125 19.5625 21.125 19.617188 21.125 19.671875 L 20.945312 27.128906 C 17.320312 20.109375 13.125 11.898438 11.757812 8.84375 C 9.808594 4.5 9.566406 19.65625 19.023438 26.449219 L 19.042969 26.433594 L 20.871094 30.25 L 20.867188 30.351562 L 16.152344 38.1875 C 15.84375 38.726562 16.039062 39.410156 16.585938 39.714844 C 17.132812 40.015625 17.824219 39.824219 18.132812 39.285156 L 20.769531 34.386719 L 20.648438 39.414062 C 20.648438 40.015625 21.144531 40.503906 21.753906 40.503906 C 22.367188 40.503906 22.863281 40.015625 22.863281 39.414062 L 22.738281 34.152344 L 25.222656 39.355469 C 25.453125 39.804688 26.007812 39.984375 26.464844 39.761719 C 26.921875 39.535156 27.105469 38.984375 26.878906 38.535156 C 26.878906 38.535156 25.113281 35.171875 22.773438 30.664062 L 27.730469 21.46875 C 29.171875 21.878906 30.851562 21.140625 31.714844 19.621094 L 31.902344 19.292969 L 33.96875 15.671875 L 35.660156 12.695312 C 35.765625 12.515625 35.578125 12.21875 35.242188 12.035156 " fill-opacity="1" fill-rule="nonzero"/></g></svg>