<svg xmlns="http://www.w3.org/2000/svg" xmlns:xlink="http://www.w3.org/1999/xlink" width="60" zoomAndPan="magnify" viewBox="0 0 45 44.999999" height="60" preserveAspectRatio="xMidYMid meet" version="1.0"><defs><clipPath id="id1"><path d="M 6.605469 6.09375 L 38.105469 6.09375 L 38.105469 38 L 6.605469 38 Z M 6.605469 6.09375 " clip-rule="nonzero"/></clipPath><clipPath id="id2"><path d="M 28 25 L 31 25 L 31 39.09375 L 28 39.09375 Z M 28 25 " clip-rule="nonzero"/></clipPath><clipPath id="id3"><path d="M 34 34 L 36 34 L 36 39.09375 L 34 39.09375 Z M 34 34 " clip-rule="nonzero"/></clipPath><clipPath id="id4"><path d="M 31 20 L 33 20 L 33 39.09375 L 31 39.09375 Z M 31 20 " clip-rule="nonzero"/></clipPath><clipPath id="id5"><path d="M 27 10 L 35 10 L 35 39.09375 L 27 39.09375 Z M 27 10 " clip-rule="nonzero"/></clipPath></defs><rect x="-4.5" width="54" fill="rgb(100%, 100%, 100%)" y="-4.5" height="53.999999" fill-opacity="1"/><rect x="-4.5" width="54" fill="rgb(100%, 100%, 100%)" y="-4.5" height="53.999999" fill-opacity="1"/><rect x="-4.5" width="54" fill="rgb(100%, 100%, 100%)" y="-4.5" height="53.999999" fill-opacity="1"/><path fill="rgb(100%, 39.99939%, 76.858521%)" d="M 22.5 0 C 10.074219 0 0 10.074219 0 22.5 C 0 34.925781 10.074219 45 22.5 45 C 34.925781 45 45 34.925781 45 22.5 C 45 10.074219 34.925781 0 22.5 0 " fill-opacity="1" fill-rule="nonzero"/><path fill="rgb(100%, 100%, 100%)" d="M 17.636719 15.160156 C 17.257812 15.386719 16.914062 15.605469 16.617188 15.800781 C 16.449219 15.914062 16.308594 16.019531 16.175781 16.101562 C 15.835938 16.332031 15.605469 16.503906 15.507812 16.578125 C 15.714844 16.421875 16.527344 15.824219 17.636719 15.160156 Z M 18.109375 14.886719 C 18.265625 14.796875 18.425781 14.710938 18.585938 14.621094 C 18.425781 14.710938 18.265625 14.796875 18.109375 14.886719 Z M 17.878906 15.019531 C 17.949219 14.976562 18.023438 14.9375 18.09375 14.894531 C 18.023438 14.9375 17.949219 14.976562 17.878906 15.019531 Z M 17.636719 15.160156 C 17.710938 15.117188 17.78125 15.074219 17.855469 15.03125 C 17.78125 15.074219 17.710938 15.117188 17.636719 15.160156 Z M 19.078125 14.367188 C 19.015625 14.398438 18.953125 14.429688 18.894531 14.460938 C 18.953125 14.429688 19.015625 14.398438 19.078125 14.367188 Z M 19.390625 14.210938 C 19.308594 14.253906 19.226562 14.292969 19.140625 14.335938 C 19.226562 14.292969 19.308594 14.253906 19.390625 14.210938 Z M 19.640625 14.09375 C 19.558594 14.132812 19.476562 14.171875 19.394531 14.210938 C 19.476562 14.171875 19.558594 14.132812 19.640625 14.09375 Z M 19.894531 13.980469 C 19.835938 14.007812 19.777344 14.035156 19.714844 14.0625 C 19.777344 14.035156 19.835938 14.007812 19.894531 13.980469 Z M 20.160156 13.863281 C 20.101562 13.890625 20.042969 13.914062 19.984375 13.941406 C 20.042969 13.914062 20.101562 13.890625 20.160156 13.863281 Z M 18.824219 14.496094 C 18.761719 14.53125 18.699219 14.5625 18.640625 14.59375 C 18.699219 14.5625 18.761719 14.53125 18.824219 14.496094 Z M 20.242188 13.832031 C 20.328125 13.796875 20.414062 13.761719 20.5 13.726562 C 20.414062 13.761719 20.328125 13.796875 20.242188 13.832031 Z M 20.765625 14.855469 L 20.761719 14.847656 C 20.722656 14.777344 20.6875 14.707031 20.652344 14.632812 C 20.589844 14.488281 20.5625 14.324219 20.546875 14.160156 C 20.609375 14.476562 20.710938 14.730469 20.765625 14.855469 Z M 14.917969 17.210938 C 14.960938 18.066406 15.835938 19.214844 17.015625 20.527344 C 17.203125 20.738281 17.394531 20.949219 17.59375 21.164062 C 18.5 22.144531 19.949219 22.800781 21.363281 23.550781 C 21.230469 23.304688 21.082031 22.914062 20.808594 22.144531 C 20.761719 22.015625 20.714844 21.878906 20.660156 21.730469 C 20.035156 19.953125 20.515625 19.457031 20.660156 19.015625 C 20.679688 18.953125 20.691406 18.894531 20.695312 18.835938 L 20.496094 18.855469 L 20.699219 18.777344 L 20.699219 18.765625 C 20.53125 18.6875 20.4375 18.421875 20.4375 18.421875 C 20.507812 18.582031 20.695312 18.695312 20.695312 18.695312 C 20.671875 18.359375 20.492188 18.035156 20.496094 17.828125 C 20.503906 17.558594 20.683594 17.1875 20.660156 16.101562 C 20.652344 15.695312 20.746094 15.328125 20.871094 15.027344 C 20.84375 14.984375 20.816406 14.9375 20.789062 14.894531 C 20.644531 14.53125 20.539062 14.128906 20.554688 13.703125 C 20.671875 13.660156 20.792969 13.613281 20.910156 13.570312 C 23.953125 12.484375 25.867188 12.519531 25.867188 12.519531 C 23.675781 12.273438 20.417969 13.457031 18.8125 14.296875 C 17.207031 15.136719 15.453125 16.617188 15.453125 16.617188 C 15.453125 16.617188 15.460938 16.613281 15.46875 16.605469 C 15.226562 16.828125 14.917969 17.210938 14.917969 17.210938 " fill-opacity="1" fill-rule="nonzero"/><g clip-path="url(#id1)"><path fill="rgb(100%, 100%, 100%)" d="M 35.671875 30.09375 C 35.707031 30.175781 35.746094 30.261719 35.78125 30.34375 C 37.234375 27.925781 38.070312 25.085938 38.070312 22.046875 C 38.070312 13.234375 31.035156 6.089844 22.355469 6.089844 C 13.671875 6.089844 6.636719 13.234375 6.636719 22.046875 C 6.636719 28.851562 10.835938 34.65625 16.746094 36.949219 C 17.117188 36.5 17.519531 36.140625 17.886719 35.824219 C 18.945312 34.902344 20.121094 32.617188 20.59375 31.644531 C 20.683594 31.363281 20.8125 31.105469 20.839844 30.800781 C 20.847656 30.667969 20.851562 30.539062 20.851562 30.410156 C 14.910156 25.375 11.148438 20.515625 10.003906 17.558594 C 8.988281 14.9375 9.296875 14.601562 9.394531 14.558594 C 9.429688 14.5 9.484375 14.449219 9.558594 14.402344 C 9.703125 14.308594 9.863281 14.246094 10.023438 14.1875 C 10.222656 14.050781 12.164062 12.800781 15.84375 11.679688 C 18.746094 10.792969 22.269531 9.996094 25.0625 10.074219 L 25.074219 10.066406 L 25.078125 10.066406 C 25.09375 10.054688 25.113281 10.046875 25.128906 10.039062 L 25.136719 10.035156 C 25.15625 10.027344 25.171875 10.019531 25.191406 10.011719 C 25.117188 10.046875 25.078125 10.066406 25.078125 10.066406 C 27.449219 9.261719 28.78125 10.039062 30.058594 10.855469 C 30.609375 11.207031 31.082031 11.878906 31.441406 12.527344 C 31.039062 12.007812 30.472656 11.460938 29.621094 10.855469 C 28.128906 9.792969 26.621094 9.792969 25.238281 10.183594 C 25.296875 10.183594 25.351562 10.1875 25.40625 10.1875 C 28.589844 9.644531 31.011719 11.433594 32.722656 15.355469 C 33.371094 16.839844 34.019531 17.417969 34.46875 18.046875 C 34.726562 18.566406 34.921875 19.101562 35.046875 19.710938 C 35.039062 19.597656 35.027344 19.492188 35.011719 19.394531 L 35.011719 19.402344 C 35.027344 19.414062 35.035156 19.429688 35.035156 19.449219 C 35.042969 19.574219 35.058594 19.695312 35.066406 19.816406 C 35.0625 19.78125 35.054688 19.746094 35.046875 19.710938 C 35.058594 19.855469 35.066406 20.007812 35.066406 20.179688 C 35.066406 22.601562 33.996094 27.140625 35.257812 29.5625 C 36.523438 31.980469 36.28125 33.265625 34.773438 34.402344 C 33.265625 35.539062 34.53125 37.859375 34.53125 37.859375 C 34.53125 37.859375 33.652344 36.199219 34.96875 34.617188 C 36.28125 33.039062 36.695312 32.515625 36.015625 30.882812 C 35.902344 30.621094 35.789062 30.359375 35.671875 30.09375 " fill-opacity="1" fill-rule="nonzero"/></g><path fill="rgb(100%, 100%, 100%)" d="M 27.15625 22.160156 C 27.207031 18.75 27.710938 18.71875 26.445312 16.148438 C 25.179688 13.582031 23.582031 14.199219 23.582031 14.199219 C 23.582031 14.199219 25.089844 14 26.109375 16.074219 C 27.132812 18.148438 27.230469 18.839844 26.890625 21.015625 C 26.546875 23.1875 27.75 25.949219 30.460938 26.347656 C 30.460938 26.347656 27.109375 25.566406 27.15625 22.160156 " fill-opacity="1" fill-rule="nonzero"/><path fill="rgb(100%, 100%, 100%)" d="M 25.703125 23.980469 C 24.9375 24.238281 23.289062 24.722656 23.289062 24.722656 C 23.289062 24.722656 23.335938 24.714844 23.417969 24.707031 L 23.402344 24.707031 C 23.375 24.722656 23.347656 24.734375 23.316406 24.742188 C 23.472656 24.863281 23.628906 24.984375 23.773438 25.113281 C 23.898438 25.222656 24.023438 25.328125 24.144531 25.425781 C 24.121094 25.148438 24.0625 24.882812 23.945312 24.628906 C 23.933594 24.628906 23.925781 24.628906 23.917969 24.632812 C 24.25 24.574219 24.671875 24.492188 25.078125 24.367188 C 25.941406 24.109375 26.875 23.824219 26.871094 23.089844 C 26.871094 23.089844 26.46875 23.71875 25.703125 23.980469 " fill-opacity="1" fill-rule="nonzero"/><path fill="rgb(100%, 100%, 100%)" d="M 26 12.890625 C 26 12.890625 26.292969 13.628906 26.695312 13.914062 C 27.097656 14.199219 28.046875 14.65625 28.800781 14.878906 C 29.554688 15.101562 29.832031 15.554688 29.980469 15.703125 C 30.125 15.851562 30.648438 15.953125 30.648438 15.953125 C 30.648438 15.953125 30.039062 15.804688 29.722656 15.285156 C 29.40625 14.765625 28.722656 14.765625 27.949219 14.480469 C 27.175781 14.199219 26.425781 13.777344 26 12.890625 " fill-opacity="1" fill-rule="nonzero"/><path fill="rgb(100%, 100%, 100%)" d="M 30.539062 14.550781 C 30.539062 14.550781 29.652344 14.136719 29.324219 13.320312 C 29.324219 13.320312 29.601562 14.25 30.539062 14.550781 " fill-opacity="1" fill-rule="nonzero"/><path fill="rgb(100%, 100%, 100%)" d="M 29.710938 22.058594 C 30.648438 19.335938 29.417969 16.914062 28.324219 16.148438 C 28.324219 16.148438 30.273438 18.4375 29.710938 20.925781 C 29.152344 23.410156 28.351562 24.851562 30.222656 26.265625 C 30.222656 26.265625 28.78125 24.769531 29.710938 22.058594 " fill-opacity="1" fill-rule="nonzero"/><g clip-path="url(#id2)"><path fill="rgb(100%, 100%, 100%)" d="M 30.546875 39.089844 L 30.75 39.089844 C 31.054688 37.257812 30.894531 35.210938 30.0625 31.824219 C 29.03125 27.625 28.707031 25.648438 28.707031 25.648438 C 28.707031 25.648438 28.882812 28.109375 29.929688 32.03125 C 30.730469 35.027344 30.785156 37.539062 30.546875 39.089844 " fill-opacity="1" fill-rule="nonzero"/></g><g clip-path="url(#id3)"><path fill="rgb(100%, 100%, 100%)" d="M 34.910156 39.089844 L 35.171875 39.089844 C 35.847656 37.75 36.199219 35.691406 35.699219 34.21875 C 35.699219 34.21875 36.019531 37.195312 34.910156 39.089844 " fill-opacity="1" fill-rule="nonzero"/></g><g clip-path="url(#id4)"><path fill="rgb(100%, 100%, 100%)" d="M 31.679688 36.441406 C 31.902344 37.535156 31.960938 38.410156 31.929688 39.089844 L 32.097656 39.089844 C 32.152344 38.316406 32.113281 37.273438 31.867188 35.871094 C 31.097656 31.539062 31.265625 28.621094 32 25.894531 C 32.730469 23.167969 31.414062 20.484375 31.414062 20.484375 C 31.222656 20.683594 32.4375 22.957031 31.753906 25.648438 C 31.074219 28.339844 30.96875 32.984375 31.679688 36.441406 " fill-opacity="1" fill-rule="nonzero"/></g><g clip-path="url(#id5)"><path fill="rgb(100%, 100%, 100%)" d="M 28.417969 11.648438 C 29.027344 12.042969 29.667969 11.890625 30.269531 12.238281 C 30.300781 12.46875 30.394531 13.082031 30.601562 14.089844 C 30.53125 14.035156 30.449219 13.984375 30.34375 13.9375 C 29.804688 13.683594 29.710938 13.617188 29.710938 13.617188 C 29.710938 13.617188 30.085938 13.902344 30.460938 14.074219 C 30.519531 14.101562 30.570312 14.136719 30.617188 14.167969 C 30.871094 15.402344 31.292969 17.203125 31.976562 19.597656 C 32.808594 22.523438 34.410156 23.328125 33.871094 26.265625 C 33.628906 27.601562 32.292969 33.921875 33.507812 37.230469 C 33.765625 37.9375 33.820312 38.554688 33.746094 39.089844 L 33.757812 39.089844 C 33.828125 38.585938 33.820312 38 33.703125 37.316406 C 33.019531 33.414062 33.015625 33.015625 33.597656 29.210938 C 34.183594 25.40625 34.53125 24.777344 33.265625 21.933594 C 32 19.089844 31.269531 16.816406 31.125 15.136719 C 31.003906 13.78125 30.511719 12.65625 30.328125 12.273438 C 30.527344 12.402344 30.726562 12.59375 30.917969 12.890625 C 31.683594 14.078125 31.53125 16.261719 32.390625 17.566406 C 33.253906 18.875 33.976562 20.550781 33.980469 22.375 C 33.980469 22.375 34.238281 20.621094 33.453125 19.054688 C 32.667969 17.484375 32.175781 17.078125 31.902344 15.6875 C 31.628906 14.300781 31.628906 12.175781 29.4375 11.816406 C 27.742188 11.539062 27.621094 10.335938 27.621094 10.335938 C 27.621094 10.335938 27.578125 11.113281 28.417969 11.648438 " fill-opacity="1" fill-rule="nonzero"/></g><path fill="rgb(100%, 100%, 100%)" d="M 30.199219 26.257812 C 30.214844 26.261719 30.222656 26.265625 30.222656 26.265625 C 30.214844 26.265625 30.207031 26.257812 30.199219 26.257812 " fill-opacity="1" fill-rule="nonzero"/><path fill="rgb(100%, 100%, 100%)" d="M 23.484375 13.820312 C 23.167969 13.941406 22.96875 14.085938 22.96875 14.085938 C 23.148438 13.980469 23.320312 13.894531 23.484375 13.820312 " fill-opacity="1" fill-rule="nonzero"/><path fill="rgb(100%, 100%, 100%)" d="M 23.484375 13.820312 C 24.160156 13.566406 25.367188 13.40625 26.386719 14.890625 C 27.886719 17.078125 27.851562 19.367188 27.886719 21.074219 C 27.921875 22.773438 28.5 25.609375 30.199219 26.257812 C 29.976562 26.160156 28.308594 25.289062 28.105469 21.074219 C 27.898438 16.785156 26.621094 12.476562 23.484375 13.820312 " fill-opacity="1" fill-rule="nonzero"/><path fill="rgb(100%, 100%, 100%)" d="M 21.664062 21.707031 C 21.664062 21.707031 21.546875 21.789062 21.445312 21.765625 C 21.347656 21.742188 21.214844 21.746094 21.167969 21.847656 C 21.101562 21.984375 21.085938 22.257812 21.121094 22.316406 C 21.121094 22.316406 21.117188 21.878906 21.246094 21.8125 C 21.371094 21.75 21.480469 21.839844 21.589844 21.789062 C 21.699219 21.742188 21.824219 21.660156 22.117188 21.730469 C 22.414062 21.804688 22.871094 21.996094 23.25 21.960938 C 23.25 21.960938 22.941406 21.964844 22.605469 21.855469 C 22.238281 21.738281 21.878906 21.582031 21.664062 21.707031 " fill-opacity="1" fill-rule="nonzero"/><path fill="rgb(100%, 100%, 100%)" d="M 23.191406 22.019531 C 23.191406 22.019531 22.726562 22.054688 22.46875 22.039062 C 22.203125 22.023438 21.199219 22.203125 21.335938 22.257812 C 21.335938 22.257812 21.515625 22.234375 21.953125 22.144531 C 22.335938 22.066406 22.820312 22.101562 23.089844 22.046875 C 22.847656 22.128906 22.507812 22.351562 22.363281 22.445312 C 22.195312 22.558594 21.917969 22.742188 21.613281 22.6875 C 21.304688 22.628906 21.25 22.535156 21.265625 22.386719 C 21.28125 22.242188 21.234375 22.398438 21.234375 22.398438 C 21.1875 22.480469 21.277344 22.757812 21.71875 22.742188 C 22.1875 22.726562 22.347656 22.480469 22.699219 22.269531 C 23.050781 22.058594 23.210938 22.015625 23.210938 22.015625 C 23.195312 22.019531 23.175781 22.023438 23.160156 22.027344 C 23.171875 22.023438 23.183594 22.023438 23.191406 22.019531 " fill-opacity="1" fill-rule="nonzero"/><path fill="rgb(100%, 100%, 100%)" d="M 20.59375 31.644531 C 20.59375 31.644531 19.46875 34.242188 22.96875 34.21875 C 26.472656 34.195312 26.84375 29.085938 24.144531 25.425781 C 24.144531 25.425781 25.015625 27.085938 27.019531 27.523438 C 29.023438 27.960938 29.023438 27.960938 29.023438 27.960938 C 29.023438 27.960938 30.894531 34.382812 30.871094 37.214844 C 30.867188 38.109375 30.703125 38.675781 30.703125 38.675781 C 30.703125 38.675781 26.152344 39.058594 22.640625 38.570312 C 19.128906 38.082031 17.3125 37.191406 17.3125 37.191406 C 17.3125 37.191406 20.328125 33.949219 19.875 32.253906 C 19.703125 31.601562 20.429688 32.113281 20.59375 31.644531 " fill-opacity="1" fill-rule="nonzero"/></svg>