<svg xmlns="http://www.w3.org/2000/svg" xmlns:xlink="http://www.w3.org/1999/xlink" width="60" zoomAndPan="magnify" viewBox="0 0 45 44.999999" height="60" preserveAspectRatio="xMidYMid meet" version="1.0"><defs><clipPath id="id1"><path d="M 17 5.351562 L 39.378906 5.351562 L 39.378906 23 L 17 23 Z M 17 5.351562 " clip-rule="nonzero"/></clipPath><clipPath id="id2"><path d="M 5.628906 13 L 32 13 L 32 39.851562 L 5.628906 39.851562 Z M 5.628906 13 " clip-rule="nonzero"/></clipPath></defs><rect x="-4.5" width="54" fill="rgb(100%, 100%, 100%)" y="-4.5" height="53.999999" fill-opacity="1"/><rect x="-4.5" width="54" fill="rgb(100%, 100%, 100%)" y="-4.5" height="53.999999" fill-opacity="1"/><rect x="-4.5" width="54" fill="rgb(100%, 100%, 100%)" y="-4.5" height="53.999999" fill-opacity="1"/><path fill="rgb(44.709778%, 57.249451%, 62.748718%)" d="M 22.5 0 C 10.074219 0 0 10.074219 0 22.5 C 0 34.925781 10.074219 45 22.5 45 C 34.925781 45 45 34.925781 45 22.5 C 45 10.074219 34.925781 0 22.5 0 " fill-opacity="1" fill-rule="nonzero"/><g clip-path="url(#id1)"><path fill="rgb(100%, 100%, 100%)" d="M 27.566406 13.269531 L 25.316406 13.269531 L 25.316406 6.484375 L 27.566406 6.484375 Z M 37.125 18.359375 L 37.125 17.792969 C 37.125 14.929688 36.015625 12.230469 33.996094 10.195312 C 32.519531 8.714844 30.691406 7.726562 28.691406 7.300781 L 28.691406 5.917969 C 28.691406 5.605469 28.4375 5.351562 28.128906 5.351562 L 24.753906 5.351562 C 24.445312 5.351562 24.191406 5.605469 24.191406 5.917969 L 24.191406 7.296875 C 21.246094 7.925781 18.710938 9.773438 17.1875 12.421875 L 18.164062 12.988281 C 18.960938 11.597656 20.070312 10.46875 21.378906 9.648438 L 21.378906 12.136719 L 22.503906 12.136719 L 22.503906 9.042969 C 23.046875 8.800781 23.609375 8.605469 24.191406 8.46875 L 24.191406 13.835938 C 24.191406 14.148438 24.445312 14.402344 24.753906 14.402344 L 28.128906 14.402344 C 28.4375 14.402344 28.691406 14.148438 28.691406 13.835938 L 28.691406 8.453125 C 29.273438 8.59375 29.835938 8.789062 30.378906 9.035156 L 30.378906 12.136719 L 31.503906 12.136719 L 31.503906 9.636719 C 32.109375 10.019531 32.679688 10.472656 33.203125 10.996094 C 35.007812 12.816406 36 15.230469 36 17.792969 L 36 18.359375 L 34.3125 18.359375 L 34.3125 16.097656 C 34.3125 15.785156 34.0625 15.53125 33.75 15.53125 L 30.378906 15.53125 C 30.066406 15.53125 29.816406 15.785156 29.816406 16.097656 L 29.816406 17.792969 L 30.941406 17.792969 L 30.941406 16.664062 L 33.1875 16.664062 L 33.1875 18.359375 L 31.503906 18.359375 L 31.503906 19.492188 L 37.125 19.492188 C 37.746094 19.492188 38.25 20 38.25 20.621094 C 38.25 20.921875 38.132812 21.207031 37.921875 21.421875 C 37.707031 21.636719 37.425781 21.753906 37.125 21.753906 L 29.253906 21.753906 L 29.253906 22.882812 L 37.125 22.882812 C 37.726562 22.882812 38.289062 22.648438 38.714844 22.222656 C 39.140625 21.792969 39.375 21.226562 39.375 20.621094 C 39.375 19.375 38.367188 18.359375 37.125 18.359375 " fill-opacity="1" fill-rule="nonzero"/></g><g clip-path="url(#id2)"><path fill="rgb(100%, 100%, 100%)" d="M 6.761719 25.148438 L 9.285156 25.148438 C 9.546875 25.148438 9.773438 24.96875 9.832031 24.714844 C 10.054688 23.804688 10.410156 22.9375 10.898438 22.136719 C 11.03125 21.914062 10.996094 21.628906 10.8125 21.441406 L 9.027344 19.644531 L 11.414062 17.246094 L 13.199219 19.042969 C 13.382812 19.226562 13.667969 19.261719 13.890625 19.125 C 14.6875 18.636719 15.546875 18.277344 16.453125 18.058594 C 16.703125 17.996094 16.882812 17.769531 16.882812 17.507812 L 16.882812 14.964844 L 20.257812 14.964844 L 20.257812 17.507812 C 20.257812 17.769531 20.433594 17.996094 20.6875 18.058594 C 21.589844 18.277344 22.453125 18.636719 23.246094 19.125 C 23.46875 19.261719 23.753906 19.226562 23.941406 19.042969 L 25.726562 17.246094 L 28.109375 19.644531 L 26.324219 21.441406 C 26.140625 21.628906 26.109375 21.914062 26.242188 22.136719 C 26.730469 22.9375 27.085938 23.804688 27.304688 24.714844 C 27.367188 24.96875 27.589844 25.148438 27.851562 25.148438 L 30.378906 25.148438 L 30.378906 28.539062 L 27.851562 28.539062 C 27.589844 28.539062 27.367188 28.71875 27.304688 28.972656 C 27.085938 29.882812 26.730469 30.75 26.242188 31.550781 C 26.109375 31.773438 26.140625 32.058594 26.324219 32.246094 L 28.109375 34.042969 L 25.726562 36.441406 L 23.941406 34.644531 C 23.753906 34.457031 23.46875 34.425781 23.246094 34.5625 C 22.453125 35.050781 21.589844 35.410156 20.6875 35.628906 C 20.433594 35.691406 20.257812 35.917969 20.257812 36.179688 L 20.257812 38.71875 L 16.882812 38.71875 L 16.882812 36.179688 C 16.882812 35.917969 16.703125 35.691406 16.453125 35.628906 C 15.546875 35.410156 14.6875 35.050781 13.890625 34.5625 C 13.667969 34.425781 13.382812 34.457031 13.199219 34.644531 L 11.414062 36.441406 L 9.027344 34.042969 L 10.8125 32.246094 C 10.996094 32.058594 11.03125 31.773438 10.898438 31.550781 C 10.410156 30.75 10.054688 29.882812 9.832031 28.972656 C 9.773438 28.71875 9.546875 28.539062 9.285156 28.539062 L 6.761719 28.539062 Z M 6.199219 29.671875 L 8.855469 29.671875 C 9.0625 30.394531 9.351562 31.09375 9.710938 31.753906 L 7.832031 33.640625 C 7.613281 33.863281 7.613281 34.21875 7.832031 34.441406 L 11.015625 37.640625 C 11.234375 37.859375 11.589844 37.859375 11.808594 37.640625 L 13.6875 35.75 C 14.34375 36.117188 15.039062 36.40625 15.757812 36.613281 L 15.757812 39.285156 C 15.757812 39.597656 16.011719 39.851562 16.320312 39.851562 L 20.820312 39.851562 C 21.128906 39.851562 21.378906 39.597656 21.378906 39.285156 L 21.378906 36.613281 C 22.101562 36.40625 22.792969 36.117188 23.449219 35.75 L 25.328125 37.640625 C 25.546875 37.859375 25.902344 37.859375 26.125 37.640625 L 29.304688 34.441406 C 29.523438 34.21875 29.523438 33.863281 29.304688 33.640625 L 27.425781 31.753906 C 27.789062 31.09375 28.074219 30.394531 28.285156 29.671875 L 30.941406 29.671875 C 31.25 29.671875 31.503906 29.417969 31.503906 29.105469 L 31.503906 24.582031 C 31.503906 24.269531 31.25 24.015625 30.941406 24.015625 L 28.285156 24.015625 C 28.074219 23.292969 27.789062 22.59375 27.425781 21.933594 L 29.304688 20.046875 C 29.523438 19.824219 29.523438 19.46875 29.304688 19.246094 L 26.125 16.042969 C 25.902344 15.824219 25.546875 15.824219 25.328125 16.042969 L 23.449219 17.9375 C 22.792969 17.570312 22.101562 17.28125 21.378906 17.070312 L 21.378906 14.402344 C 21.378906 14.089844 21.128906 13.835938 20.820312 13.835938 L 16.320312 13.835938 C 16.011719 13.835938 15.757812 14.089844 15.757812 14.402344 L 15.757812 17.070312 C 15.039062 17.28125 14.34375 17.570312 13.6875 17.9375 L 11.808594 16.042969 C 11.589844 15.824219 11.234375 15.824219 11.015625 16.042969 L 7.832031 19.246094 C 7.613281 19.46875 7.613281 19.824219 7.832031 20.046875 L 9.710938 21.933594 C 9.351562 22.59375 9.0625 23.292969 8.855469 24.015625 L 6.199219 24.015625 C 5.890625 24.015625 5.636719 24.269531 5.636719 24.582031 L 5.636719 29.105469 C 5.636719 29.417969 5.890625 29.671875 6.199219 29.671875 " fill-opacity="1" fill-rule="nonzero"/></g><path fill="rgb(100%, 100%, 100%)" d="M 18.570312 21.1875 C 21.671875 21.1875 24.191406 23.722656 24.191406 26.84375 C 24.191406 29.964844 21.671875 32.5 18.570312 32.5 C 15.46875 32.5 12.945312 29.964844 12.945312 26.84375 C 12.945312 23.722656 15.46875 21.1875 18.570312 21.1875 Z M 18.570312 33.628906 C 22.289062 33.628906 25.316406 30.585938 25.316406 26.84375 C 25.316406 23.101562 22.289062 20.058594 18.570312 20.058594 C 14.847656 20.058594 11.820312 23.101562 11.820312 26.84375 C 11.820312 30.585938 14.847656 33.628906 18.570312 33.628906 " fill-opacity="1" fill-rule="nonzero"/><path fill="rgb(100%, 100%, 100%)" d="M 18.570312 24.582031 C 19.808594 24.582031 20.820312 25.59375 20.820312 26.84375 C 20.820312 28.09375 19.808594 29.105469 18.570312 29.105469 C 17.328125 29.105469 16.320312 28.09375 16.320312 26.84375 C 16.320312 25.59375 17.328125 24.582031 18.570312 24.582031 Z M 18.570312 30.238281 C 20.429688 30.238281 21.941406 28.714844 21.941406 26.84375 C 21.941406 24.972656 20.429688 23.449219 18.570312 23.449219 C 16.707031 23.449219 15.195312 24.972656 15.195312 26.84375 C 15.195312 28.714844 16.707031 30.238281 18.570312 30.238281 " fill-opacity="1" fill-rule="nonzero"/></svg>