<svg xmlns="http://www.w3.org/2000/svg" xmlns:xlink="http://www.w3.org/1999/xlink" width="60" zoomAndPan="magnify" viewBox="0 0 45 44.999999" height="60" preserveAspectRatio="xMidYMid meet" version="1.0"><defs><clipPath id="id1"><path d="M 6.96875 12 L 37.71875 12 L 37.71875 35.738281 L 6.96875 35.738281 Z M 6.96875 12 " clip-rule="nonzero"/></clipPath><clipPath id="id2"><path d="M 21 4.988281 L 23 4.988281 L 23 8 L 21 8 Z M 21 4.988281 " clip-rule="nonzero"/></clipPath></defs><rect x="-4.5" width="54" fill="rgb(100%, 100%, 100%)" y="-4.5" height="53.999999" fill-opacity="1"/><rect x="-4.5" width="54" fill="rgb(100%, 100%, 100%)" y="-4.5" height="53.999999" fill-opacity="1"/><rect x="-4.5" width="54" fill="rgb(100%, 100%, 100%)" y="-4.5" height="53.999999" fill-opacity="1"/><path fill="rgb(36.859131%, 9.01947%, 92.158508%)" d="M 22.5 0 C 10.074219 0 0 10.074219 0 22.5 C 0 34.925781 10.074219 45 22.5 45 C 34.925781 45 45 34.925781 45 22.5 C 45 10.074219 34.925781 0 22.5 0 " fill-opacity="1" fill-rule="nonzero"/><g clip-path="url(#id1)"><path fill="rgb(100%, 100%, 100%)" d="M 8.003906 34.695312 L 8.003906 33.65625 L 36.683594 33.65625 L 36.683594 34.695312 Z M 8.003906 16.976562 L 9.539062 16.976562 L 9.539062 29.832031 C 9.539062 30.121094 9.769531 30.355469 10.050781 30.355469 C 14.820312 30.355469 18.390625 31.667969 20.351562 32.613281 L 8.003906 32.613281 Z M 34.632812 30.355469 C 34.914062 30.355469 35.144531 30.121094 35.144531 29.832031 L 35.144531 16.976562 L 36.683594 16.976562 L 36.683594 32.613281 L 24.328125 32.613281 C 26.285156 31.667969 29.847656 30.355469 34.632812 30.355469 Z M 37.195312 15.933594 L 35.144531 15.933594 L 35.144531 13.328125 C 35.144531 13.042969 34.914062 12.808594 34.632812 12.808594 C 33.222656 12.808594 31.820312 12.917969 30.457031 13.136719 L 30.617188 14.164062 C 31.761719 13.980469 32.9375 13.878906 34.121094 13.855469 L 34.121094 29.316406 C 28.40625 29.425781 24.464844 31.28125 22.855469 32.203125 L 22.855469 30.527344 L 21.832031 30.527344 L 21.832031 32.203125 C 20.21875 31.28125 16.277344 29.425781 10.5625 29.316406 L 10.5625 13.855469 C 11.746094 13.878906 12.925781 13.980469 14.066406 14.164062 L 14.226562 13.136719 C 12.867188 12.917969 11.460938 12.808594 10.050781 12.808594 C 9.769531 12.808594 9.539062 13.042969 9.539062 13.328125 L 9.539062 15.933594 L 7.492188 15.933594 C 7.207031 15.933594 6.976562 16.167969 6.976562 16.457031 L 6.976562 35.21875 C 6.976562 35.503906 7.207031 35.738281 7.492188 35.738281 L 37.195312 35.738281 C 37.476562 35.738281 37.707031 35.503906 37.707031 35.21875 L 37.707031 16.457031 C 37.707031 16.167969 37.476562 15.933594 37.195312 15.933594 " fill-opacity="1" fill-rule="nonzero"/></g><path fill="rgb(100%, 100%, 100%)" d="M 22.34375 20.410156 L 19.992188 18.019531 L 20.804688 17.191406 L 21.980469 18.386719 C 22.179688 18.589844 22.503906 18.589844 22.703125 18.386719 L 23.878906 17.191406 L 24.691406 18.019531 Z M 26.78125 10.882812 C 28.191406 12.167969 29 14.011719 29 15.933594 C 29 18.421875 27.660156 20.703125 25.503906 21.890625 C 24.820312 22.269531 24.390625 22.976562 24.390625 23.742188 L 22.855469 23.746094 L 22.855469 21.363281 L 25.777344 18.386719 C 25.976562 18.183594 25.976562 17.855469 25.777344 17.652344 L 24.242188 16.085938 C 24.039062 15.882812 23.71875 15.882812 23.515625 16.085938 L 22.34375 17.28125 L 21.167969 16.085938 C 20.96875 15.882812 20.644531 15.882812 20.445312 16.085938 L 18.90625 17.652344 C 18.707031 17.855469 18.707031 18.183594 18.90625 18.386719 L 21.832031 21.363281 L 21.832031 23.746094 L 20.292969 23.753906 L 20.292969 23.742188 C 20.292969 22.976562 19.867188 22.269531 19.175781 21.890625 C 16.722656 20.535156 15.375 17.828125 15.746094 14.996094 C 16.144531 11.972656 18.597656 9.539062 21.578125 9.203125 C 23.503906 8.984375 25.351562 9.582031 26.78125 10.882812 Z M 20.292969 28.441406 L 20.292969 26.878906 L 24.390625 26.878906 L 24.390625 28.441406 Z M 24.390625 24.792969 L 24.390625 25.835938 L 20.292969 25.835938 L 20.292969 24.792969 Z M 14.734375 14.855469 C 14.300781 18.121094 15.855469 21.242188 18.691406 22.804688 C 19.046875 23 19.269531 23.359375 19.269531 23.742188 L 19.269531 28.964844 C 19.269531 29.25 19.5 29.484375 19.78125 29.484375 L 24.902344 29.484375 C 25.183594 29.484375 25.414062 29.25 25.414062 28.964844 L 25.414062 23.742188 C 25.414062 23.359375 25.636719 23 25.992188 22.804688 C 28.480469 21.4375 30.023438 18.804688 30.023438 15.933594 C 30.023438 13.714844 29.089844 11.589844 27.464844 10.109375 C 25.816406 8.605469 23.6875 7.917969 21.464844 8.164062 C 18.023438 8.554688 15.191406 11.367188 14.734375 14.855469 " fill-opacity="1" fill-rule="nonzero"/><g clip-path="url(#id2)"><path fill="rgb(100%, 100%, 100%)" d="M 22.855469 4.988281 L 21.832031 4.988281 L 21.832031 7.074219 L 22.855469 7.074219 L 22.855469 4.988281 " fill-opacity="1" fill-rule="nonzero"/></g><path fill="rgb(100%, 100%, 100%)" d="M 30.175781 7.746094 L 28.636719 9.3125 L 29.363281 10.046875 L 30.898438 8.484375 L 30.175781 7.746094 " fill-opacity="1" fill-rule="nonzero"/><path fill="rgb(100%, 100%, 100%)" d="M 13.785156 8.484375 L 15.324219 10.046875 L 16.046875 9.3125 L 14.511719 7.746094 L 13.785156 8.484375 " fill-opacity="1" fill-rule="nonzero"/><path fill="rgb(100%, 100%, 100%)" d="M 33.097656 16.976562 L 31.050781 16.976562 L 31.050781 15.933594 L 33.097656 15.933594 L 33.097656 16.976562 " fill-opacity="1" fill-rule="nonzero"/><path fill="rgb(100%, 100%, 100%)" d="M 13.636719 16.980469 L 11.585938 16.976562 L 11.585938 15.933594 L 13.636719 15.9375 L 13.636719 16.980469 " fill-opacity="1" fill-rule="nonzero"/></svg>