<svg xmlns="http://www.w3.org/2000/svg" xmlns:xlink="http://www.w3.org/1999/xlink" width="60" zoomAndPan="magnify" viewBox="0 0 45 44.999999" height="60" preserveAspectRatio="xMidYMid meet" version="1.0"><defs><clipPath id="id1"><path d="M 6.605469 5.855469 L 38.105469 5.855469 L 38.105469 37.355469 L 6.605469 37.355469 Z M 6.605469 5.855469 " clip-rule="nonzero"/></clipPath></defs><rect x="-4.5" width="54" fill="rgb(100%, 100%, 100%)" y="-4.5" height="53.999999" fill-opacity="1"/><rect x="-4.5" width="54" fill="rgb(100%, 100%, 100%)" y="-4.5" height="53.999999" fill-opacity="1"/><rect x="-4.5" width="54" fill="rgb(100%, 100%, 100%)" y="-4.5" height="53.999999" fill-opacity="1"/><path fill="rgb(54.899597%, 32.159424%, 100%)" d="M 22.5 0 C 10.074219 0 0 10.074219 0 22.5 C 0 34.925781 10.074219 45 22.5 45 C 34.925781 45 45 34.925781 45 22.5 C 45 10.074219 34.925781 0 22.5 0 " fill-opacity="1" fill-rule="nonzero"/><g clip-path="url(#id1)"><path fill="rgb(100%, 100%, 100%)" d="M 35.480469 36.304688 L 9.230469 36.304688 C 8.363281 36.304688 7.65625 35.597656 7.65625 34.730469 L 7.65625 15.304688 L 37.054688 15.304688 L 37.054688 34.730469 C 37.054688 35.597656 36.347656 36.304688 35.480469 36.304688 Z M 9.230469 9.003906 L 12.378906 9.003906 L 12.378906 10.582031 C 12.378906 11.449219 13.085938 12.15625 13.957031 12.15625 C 14.824219 12.15625 15.53125 11.449219 15.53125 10.582031 L 15.53125 9.003906 L 20.78125 9.003906 L 20.78125 10.582031 C 20.78125 11.449219 21.488281 12.15625 22.355469 12.15625 C 23.222656 12.15625 23.929688 11.449219 23.929688 10.582031 L 23.929688 9.003906 L 29.179688 9.003906 L 29.179688 10.582031 C 29.179688 11.449219 29.886719 12.15625 30.753906 12.15625 C 31.625 12.15625 32.332031 11.449219 32.332031 10.582031 L 32.332031 9.003906 L 35.480469 9.003906 C 36.347656 9.003906 37.054688 9.710938 37.054688 10.582031 L 37.054688 14.253906 L 7.65625 14.253906 L 7.65625 10.582031 C 7.65625 9.710938 8.363281 9.003906 9.230469 9.003906 Z M 13.429688 7.429688 C 13.429688 7.140625 13.667969 6.90625 13.957031 6.90625 C 14.246094 6.90625 14.480469 7.140625 14.480469 7.429688 L 14.480469 10.582031 C 14.480469 10.871094 14.246094 11.105469 13.957031 11.105469 C 13.667969 11.105469 13.429688 10.871094 13.429688 10.582031 Z M 21.832031 7.429688 C 21.832031 7.140625 22.066406 6.90625 22.355469 6.90625 C 22.644531 6.90625 22.878906 7.140625 22.878906 7.429688 L 22.878906 10.582031 C 22.878906 10.871094 22.644531 11.105469 22.355469 11.105469 C 22.066406 11.105469 21.832031 10.871094 21.832031 10.582031 Z M 30.230469 7.429688 C 30.230469 7.140625 30.464844 6.90625 30.753906 6.90625 C 31.046875 6.90625 31.28125 7.140625 31.28125 7.429688 L 31.28125 10.582031 C 31.28125 10.871094 31.046875 11.105469 30.753906 11.105469 C 30.464844 11.105469 30.230469 10.871094 30.230469 10.582031 Z M 35.480469 7.957031 L 32.332031 7.957031 L 32.332031 7.429688 C 32.332031 6.5625 31.625 5.855469 30.753906 5.855469 C 29.886719 5.855469 29.179688 6.5625 29.179688 7.429688 L 29.179688 7.957031 L 23.929688 7.957031 L 23.929688 7.429688 C 23.929688 6.5625 23.222656 5.855469 22.355469 5.855469 C 21.488281 5.855469 20.78125 6.5625 20.78125 7.429688 L 20.78125 7.957031 L 15.53125 7.957031 L 15.53125 7.429688 C 15.53125 6.5625 14.824219 5.855469 13.957031 5.855469 C 13.085938 5.855469 12.378906 6.5625 12.378906 7.429688 L 12.378906 7.957031 L 9.230469 7.957031 C 7.785156 7.957031 6.605469 9.132812 6.605469 10.582031 L 6.605469 34.730469 C 6.605469 36.179688 7.785156 37.355469 9.230469 37.355469 L 35.480469 37.355469 C 36.929688 37.355469 38.105469 36.179688 38.105469 34.730469 L 38.105469 10.582031 C 38.105469 9.132812 36.929688 7.957031 35.480469 7.957031 " fill-opacity="1" fill-rule="nonzero"/></g><path fill="rgb(100%, 100%, 100%)" d="M 33.90625 21.082031 L 32.855469 21.082031 L 32.855469 20.03125 L 33.90625 20.03125 Z M 34.429688 18.980469 L 32.332031 18.980469 C 32.039062 18.980469 31.804688 19.214844 31.804688 19.503906 L 31.804688 21.605469 C 31.804688 21.894531 32.039062 22.128906 32.332031 22.128906 L 34.429688 22.128906 C 34.71875 22.128906 34.957031 21.894531 34.957031 21.605469 L 34.957031 19.503906 C 34.957031 19.214844 34.71875 18.980469 34.429688 18.980469 " fill-opacity="1" fill-rule="nonzero"/><path fill="rgb(100%, 100%, 100%)" d="M 23.40625 31.582031 L 22.355469 31.582031 L 22.355469 30.53125 L 23.40625 30.53125 Z M 23.929688 29.480469 L 21.832031 29.480469 C 21.539062 29.480469 21.304688 29.714844 21.304688 30.003906 L 21.304688 32.105469 C 21.304688 32.394531 21.539062 32.628906 21.832031 32.628906 L 23.929688 32.628906 C 24.21875 32.628906 24.457031 32.394531 24.457031 32.105469 L 24.457031 30.003906 C 24.457031 29.714844 24.21875 29.480469 23.929688 29.480469 " fill-opacity="1" fill-rule="nonzero"/><path fill="rgb(100%, 100%, 100%)" d="M 18.15625 21.082031 L 17.105469 21.082031 L 17.105469 20.03125 L 18.15625 20.03125 Z M 18.679688 18.980469 L 16.582031 18.980469 C 16.289062 18.980469 16.054688 19.214844 16.054688 19.503906 L 16.054688 21.605469 C 16.054688 21.894531 16.289062 22.128906 16.582031 22.128906 L 18.679688 22.128906 C 18.96875 22.128906 19.207031 21.894531 19.207031 21.605469 L 19.207031 19.503906 C 19.207031 19.214844 18.96875 18.980469 18.679688 18.980469 " fill-opacity="1" fill-rule="nonzero"/><path fill="rgb(100%, 100%, 100%)" d="M 12.90625 26.332031 L 11.855469 26.332031 L 11.855469 25.28125 L 12.90625 25.28125 Z M 13.429688 24.230469 L 11.332031 24.230469 C 11.039062 24.230469 10.804688 24.464844 10.804688 24.753906 L 10.804688 26.855469 C 10.804688 27.144531 11.039062 27.378906 11.332031 27.378906 L 13.429688 27.378906 C 13.71875 27.378906 13.957031 27.144531 13.957031 26.855469 L 13.957031 24.753906 C 13.957031 24.464844 13.71875 24.230469 13.429688 24.230469 " fill-opacity="1" fill-rule="nonzero"/><path fill="rgb(100%, 100%, 100%)" d="M 18.15625 26.332031 L 17.105469 26.332031 L 17.105469 25.28125 L 18.15625 25.28125 Z M 18.679688 24.230469 L 16.582031 24.230469 C 16.289062 24.230469 16.054688 24.464844 16.054688 24.753906 L 16.054688 26.855469 C 16.054688 27.144531 16.289062 27.378906 16.582031 27.378906 L 18.679688 27.378906 C 18.96875 27.378906 19.207031 27.144531 19.207031 26.855469 L 19.207031 24.753906 C 19.207031 24.464844 18.96875 24.230469 18.679688 24.230469 " fill-opacity="1" fill-rule="nonzero"/><path fill="rgb(100%, 100%, 100%)" d="M 12.90625 31.582031 L 11.855469 31.582031 L 11.855469 30.53125 L 12.90625 30.53125 Z M 13.429688 29.480469 L 11.332031 29.480469 C 11.039062 29.480469 10.804688 29.714844 10.804688 30.003906 L 10.804688 32.105469 C 10.804688 32.394531 11.039062 32.628906 11.332031 32.628906 L 13.429688 32.628906 C 13.71875 32.628906 13.957031 32.394531 13.957031 32.105469 L 13.957031 30.003906 C 13.957031 29.714844 13.71875 29.480469 13.429688 29.480469 " fill-opacity="1" fill-rule="nonzero"/><path fill="rgb(100%, 100%, 100%)" d="M 18.15625 31.582031 L 17.105469 31.582031 L 17.105469 30.53125 L 18.15625 30.53125 Z M 18.679688 29.480469 L 16.582031 29.480469 C 16.289062 29.480469 16.054688 29.714844 16.054688 30.003906 L 16.054688 32.105469 C 16.054688 32.394531 16.289062 32.628906 16.582031 32.628906 L 18.679688 32.628906 C 18.96875 32.628906 19.207031 32.394531 19.207031 32.105469 L 19.207031 30.003906 C 19.207031 29.714844 18.96875 29.480469 18.679688 29.480469 " fill-opacity="1" fill-rule="nonzero"/><path fill="rgb(100%, 100%, 100%)" d="M 27.230469 23.449219 C 27.113281 23.570312 27.0625 23.738281 27.085938 23.902344 L 27.410156 25.875 L 25.757812 24.960938 C 25.679688 24.917969 25.59375 24.894531 25.503906 24.894531 C 25.417969 24.894531 25.332031 24.917969 25.25 24.960938 L 23.601562 25.875 L 23.921875 23.902344 C 23.949219 23.738281 23.898438 23.570312 23.78125 23.449219 L 22.394531 22.027344 L 24.289062 21.738281 C 24.460938 21.714844 24.609375 21.601562 24.683594 21.445312 L 25.503906 19.691406 L 26.328125 21.445312 C 26.402344 21.601562 26.550781 21.714844 26.722656 21.738281 L 28.617188 22.027344 Z M 29.785156 21.144531 L 27.160156 20.742188 L 25.980469 18.234375 C 25.894531 18.046875 25.710938 17.929688 25.503906 17.929688 C 25.300781 17.929688 25.117188 18.046875 25.03125 18.234375 L 23.851562 20.742188 L 21.226562 21.144531 C 21.03125 21.175781 20.871094 21.3125 20.808594 21.496094 C 20.746094 21.683594 20.792969 21.890625 20.929688 22.03125 L 22.84375 23.992188 L 22.390625 26.769531 C 22.359375 26.96875 22.441406 27.167969 22.609375 27.285156 C 22.773438 27.402344 22.988281 27.414062 23.164062 27.316406 L 25.503906 26.019531 L 27.847656 27.316406 C 27.925781 27.359375 28.015625 27.378906 28.101562 27.378906 C 28.207031 27.378906 28.3125 27.347656 28.402344 27.285156 C 28.566406 27.167969 28.652344 26.96875 28.621094 26.769531 L 28.167969 23.992188 L 30.082031 22.03125 C 30.21875 21.890625 30.265625 21.683594 30.203125 21.496094 C 30.140625 21.3125 29.980469 21.175781 29.785156 21.144531 " fill-opacity="1" fill-rule="nonzero"/><path fill="rgb(100%, 100%, 100%)" d="M 33.90625 26.332031 L 32.855469 26.332031 L 32.855469 25.28125 L 33.90625 25.28125 Z M 34.429688 24.230469 L 32.332031 24.230469 C 32.039062 24.230469 31.804688 24.464844 31.804688 24.753906 L 31.804688 26.855469 C 31.804688 27.144531 32.039062 27.378906 32.332031 27.378906 L 34.429688 27.378906 C 34.71875 27.378906 34.957031 27.144531 34.957031 26.855469 L 34.957031 24.753906 C 34.957031 24.464844 34.71875 24.230469 34.429688 24.230469 " fill-opacity="1" fill-rule="nonzero"/><path fill="rgb(100%, 100%, 100%)" d="M 33.90625 31.582031 L 32.855469 31.582031 L 32.855469 30.53125 L 33.90625 30.53125 Z M 34.429688 29.480469 L 32.332031 29.480469 C 32.039062 29.480469 31.804688 29.714844 31.804688 30.003906 L 31.804688 32.105469 C 31.804688 32.394531 32.039062 32.628906 32.332031 32.628906 L 34.429688 32.628906 C 34.71875 32.628906 34.957031 32.394531 34.957031 32.105469 L 34.957031 30.003906 C 34.957031 29.714844 34.71875 29.480469 34.429688 29.480469 " fill-opacity="1" fill-rule="nonzero"/><path fill="rgb(100%, 100%, 100%)" d="M 28.65625 31.582031 L 27.605469 31.582031 L 27.605469 30.53125 L 28.65625 30.53125 Z M 29.179688 29.480469 L 27.082031 29.480469 C 26.789062 29.480469 26.554688 29.714844 26.554688 30.003906 L 26.554688 32.105469 C 26.554688 32.394531 26.789062 32.628906 27.082031 32.628906 L 29.179688 32.628906 C 29.46875 32.628906 29.707031 32.394531 29.707031 32.105469 L 29.707031 30.003906 C 29.707031 29.714844 29.46875 29.480469 29.179688 29.480469 " fill-opacity="1" fill-rule="nonzero"/></svg>