<svg xmlns="http://www.w3.org/2000/svg" xmlns:xlink="http://www.w3.org/1999/xlink" width="60" zoomAndPan="magnify" viewBox="0 0 45 44.999999" height="60" preserveAspectRatio="xMidYMid meet" version="1.0"><defs><clipPath id="id1"><path d="M 5.902344 30 L 38.902344 30 L 38.902344 36.75 L 5.902344 36.75 Z M 5.902344 30 " clip-rule="nonzero"/></clipPath><clipPath id="id2"><path d="M 5.902344 6 L 38.902344 6 L 38.902344 18 L 5.902344 18 Z M 5.902344 6 " clip-rule="nonzero"/></clipPath><clipPath id="id3"><path d="M 12 3.75 L 33 3.75 L 33 10 L 12 10 Z M 12 3.75 " clip-rule="nonzero"/></clipPath><clipPath id="id4"><path d="M 15 35 L 30 35 L 30 36.75 L 15 36.75 Z M 15 35 " clip-rule="nonzero"/></clipPath><clipPath id="id5"><path d="M 5.902344 16 L 12 16 L 12 18 L 5.902344 18 Z M 5.902344 16 " clip-rule="nonzero"/></clipPath><clipPath id="id6"><path d="M 33 16 L 38.902344 16 L 38.902344 18 L 33 18 Z M 33 16 " clip-rule="nonzero"/></clipPath></defs><rect x="-4.5" width="54" fill="rgb(100%, 100%, 100%)" y="-4.5" height="53.999999" fill-opacity="1"/><rect x="-4.5" width="54" fill="rgb(100%, 100%, 100%)" y="-4.5" height="53.999999" fill-opacity="1"/><rect x="-4.5" width="54" fill="rgb(100%, 100%, 100%)" y="-4.5" height="53.999999" fill-opacity="1"/><path fill="rgb(73.329163%, 65.879822%, 65.098572%)" d="M 22.5 0 C 10.074219 0 0 10.074219 0 22.5 C 0 34.925781 10.074219 45 22.5 45 C 34.925781 45 45 34.925781 45 22.5 C 45 10.074219 34.925781 0 22.5 0 " fill-opacity="1" fill-rule="nonzero"/><g clip-path="url(#id1)"><path fill="rgb(100%, 100%, 100%)" d="M 6.808594 36.546875 C 12.15625 33.597656 17.355469 32.179688 22.402344 32.085938 C 27.757812 31.988281 32.941406 33.394531 37.953125 36.53125 C 38.214844 36.695312 38.5625 36.617188 38.726562 36.355469 C 38.890625 36.09375 38.808594 35.746094 38.546875 35.582031 C 33.339844 32.320312 27.949219 30.863281 22.382812 30.964844 C 17.167969 31.0625 11.792969 32.519531 6.265625 35.566406 C 5.996094 35.714844 5.894531 36.054688 6.042969 36.328125 C 6.195312 36.597656 6.535156 36.699219 6.808594 36.546875 Z M 6.808594 36.546875 " fill-opacity="1" fill-rule="evenodd"/></g><path fill="rgb(100%, 100%, 100%)" d="M 11.628906 33.789062 L 11.628906 16.800781 C 11.628906 16.492188 11.375 16.242188 11.066406 16.242188 C 10.757812 16.242188 10.503906 16.492188 10.503906 16.800781 L 10.503906 33.789062 C 10.503906 34.097656 10.757812 34.351562 11.066406 34.351562 C 11.375 34.351562 11.628906 34.097656 11.628906 33.789062 Z M 11.628906 33.789062 " fill-opacity="1" fill-rule="evenodd"/><path fill="rgb(100%, 100%, 100%)" d="M 34.28125 33.542969 L 34.28125 16.800781 C 34.28125 16.492188 34.027344 16.242188 33.71875 16.242188 C 33.410156 16.242188 33.15625 16.492188 33.15625 16.800781 L 33.15625 33.542969 C 33.15625 33.855469 33.410156 34.105469 33.71875 34.105469 C 34.027344 34.105469 34.28125 33.855469 34.28125 33.542969 Z M 34.28125 33.542969 " fill-opacity="1" fill-rule="evenodd"/><g clip-path="url(#id2)"><path fill="rgb(100%, 100%, 100%)" d="M 22.394531 7.277344 L 6.839844 17.273438 C 6.578125 17.441406 6.230469 17.367188 6.0625 17.105469 C 5.898438 16.84375 5.972656 16.496094 6.234375 16.332031 L 22.089844 6.136719 C 22.273438 6.019531 22.511719 6.019531 22.695312 6.136719 L 38.554688 16.332031 C 38.8125 16.496094 38.890625 16.84375 38.722656 17.105469 C 38.554688 17.367188 38.207031 17.441406 37.945312 17.273438 Z M 22.394531 7.277344 " fill-opacity="1" fill-rule="evenodd"/></g><path fill="rgb(100%, 100%, 100%)" d="M 11.628906 9.433594 L 11.628906 13.890625 C 11.628906 14.199219 11.375 14.449219 11.066406 14.449219 C 10.757812 14.449219 10.503906 14.199219 10.503906 13.890625 L 10.503906 8.875 C 10.503906 8.5625 10.757812 8.3125 11.066406 8.3125 L 15.597656 8.3125 C 15.90625 8.3125 16.15625 8.5625 16.15625 8.875 L 16.15625 10.976562 C 16.15625 11.285156 15.90625 11.539062 15.597656 11.539062 C 15.289062 11.539062 15.035156 11.285156 15.035156 10.976562 L 15.035156 9.433594 Z M 11.628906 9.433594 " fill-opacity="1" fill-rule="evenodd"/><g clip-path="url(#id3)"><path fill="rgb(100%, 100%, 100%)" d="M 13.894531 4.90625 L 13.894531 8.875 C 13.894531 9.183594 13.640625 9.433594 13.332031 9.433594 C 13.023438 9.433594 12.769531 9.183594 12.769531 8.875 L 12.769531 4.34375 C 12.769531 4.035156 13.023438 3.78125 13.332031 3.78125 L 31.453125 3.78125 C 31.761719 3.78125 32.015625 4.035156 32.015625 4.34375 C 32.015625 4.652344 31.761719 4.90625 31.453125 4.90625 Z M 13.894531 4.90625 " fill-opacity="1" fill-rule="evenodd"/></g><path fill="rgb(100%, 100%, 100%)" d="M 22.953125 17.933594 C 22.953125 17.625 22.703125 17.375 22.394531 17.375 L 17.863281 17.375 C 17.550781 17.375 17.300781 17.625 17.300781 17.933594 L 17.300781 22.464844 C 17.300781 22.773438 17.550781 23.027344 17.863281 23.027344 L 22.394531 23.027344 C 22.703125 23.027344 22.953125 22.773438 22.953125 22.464844 Z M 18.421875 18.496094 L 18.421875 21.90625 L 21.832031 21.90625 L 21.832031 18.496094 Z M 18.421875 18.496094 " fill-opacity="1" fill-rule="evenodd"/><path fill="rgb(100%, 100%, 100%)" d="M 27.484375 17.933594 C 27.484375 17.625 27.234375 17.375 26.921875 17.375 L 22.394531 17.375 C 22.082031 17.375 21.832031 17.625 21.832031 17.933594 L 21.832031 22.464844 C 21.832031 22.773438 22.082031 23.027344 22.394531 23.027344 L 26.921875 23.027344 C 27.234375 23.027344 27.484375 22.773438 27.484375 22.464844 Z M 22.953125 18.496094 L 22.953125 21.90625 L 26.363281 21.90625 L 26.363281 18.496094 Z M 22.953125 18.496094 " fill-opacity="1" fill-rule="evenodd"/><path fill="rgb(100%, 100%, 100%)" d="M 27.484375 22.464844 C 27.484375 22.15625 27.234375 21.90625 26.921875 21.90625 L 22.394531 21.90625 C 22.082031 21.90625 21.832031 22.15625 21.832031 22.464844 L 21.832031 26.996094 C 21.832031 27.304688 22.082031 27.558594 22.394531 27.558594 L 26.921875 27.558594 C 27.234375 27.558594 27.484375 27.304688 27.484375 26.996094 Z M 22.953125 23.027344 L 22.953125 26.433594 L 26.363281 26.433594 L 26.363281 23.027344 Z M 22.953125 23.027344 " fill-opacity="1" fill-rule="evenodd"/><path fill="rgb(100%, 100%, 100%)" d="M 22.953125 22.464844 C 22.953125 22.15625 22.703125 21.90625 22.394531 21.90625 L 17.863281 21.90625 C 17.550781 21.90625 17.300781 22.15625 17.300781 22.464844 L 17.300781 26.996094 C 17.300781 27.304688 17.550781 27.558594 17.863281 27.558594 L 22.394531 27.558594 C 22.703125 27.558594 22.953125 27.304688 22.953125 26.996094 Z M 18.421875 23.027344 L 18.421875 26.433594 L 21.832031 26.433594 L 21.832031 23.027344 Z M 18.421875 23.027344 " fill-opacity="1" fill-rule="evenodd"/><g clip-path="url(#id4)"><path fill="rgb(100%, 100%, 100%)" d="M 15.597656 36.625 L 29.1875 36.625 C 29.5 36.625 29.753906 36.371094 29.753906 36.058594 C 29.753906 35.746094 29.5 35.492188 29.1875 35.492188 L 15.597656 35.492188 C 15.285156 35.492188 15.03125 35.746094 15.03125 36.058594 C 15.03125 36.371094 15.285156 36.625 15.597656 36.625 Z M 15.597656 36.625 " fill-opacity="1" fill-rule="evenodd"/></g><g clip-path="url(#id5)"><path fill="rgb(100%, 100%, 100%)" d="M 11.066406 16.234375 L 6.535156 16.234375 C 6.222656 16.234375 5.96875 16.488281 5.96875 16.800781 C 5.96875 17.113281 6.222656 17.367188 6.535156 17.367188 L 11.066406 17.367188 C 11.378906 17.367188 11.632812 17.113281 11.632812 16.800781 C 11.632812 16.488281 11.378906 16.234375 11.066406 16.234375 Z M 11.066406 16.234375 " fill-opacity="1" fill-rule="evenodd"/></g><g clip-path="url(#id6)"><path fill="rgb(100%, 100%, 100%)" d="M 38.25 16.234375 L 33.71875 16.234375 C 33.40625 16.234375 33.152344 16.488281 33.152344 16.800781 C 33.152344 17.113281 33.40625 17.367188 33.71875 17.367188 L 38.25 17.367188 C 38.5625 17.367188 38.816406 17.113281 38.816406 16.800781 C 38.816406 16.488281 38.5625 16.234375 38.25 16.234375 Z M 38.25 16.234375 " fill-opacity="1" fill-rule="evenodd"/></g></svg>