<svg xmlns="http://www.w3.org/2000/svg" xmlns:xlink="http://www.w3.org/1999/xlink" width="60" zoomAndPan="magnify" viewBox="0 0 45 44.999999" height="60" preserveAspectRatio="xMidYMid meet" version="1.0"><defs><clipPath id="id1"><path d="M 6 11 L 37.445312 11 L 37.445312 27 L 6 27 Z M 6 11 " clip-rule="nonzero"/></clipPath><clipPath id="id2"><path d="M 8 25 L 35 25 L 35 36.695312 L 8 36.695312 Z M 8 25 " clip-rule="nonzero"/></clipPath><clipPath id="id3"><path d="M 21 5.195312 L 37.445312 5.195312 L 37.445312 21 L 21 21 Z M 21 5.195312 " clip-rule="nonzero"/></clipPath></defs><rect x="-4.5" width="54" fill="rgb(100%, 100%, 100%)" y="-4.5" height="53.999999" fill-opacity="1"/><rect x="-4.5" width="54" fill="rgb(100%, 100%, 100%)" y="-4.5" height="53.999999" fill-opacity="1"/><rect x="-4.5" width="54" fill="rgb(100%, 100%, 100%)" y="-4.5" height="53.999999" fill-opacity="1"/><path fill="rgb(78.819275%, 88.62915%, 39.608765%)" d="M 22.5 0 C 10.074219 0 0 10.074219 0 22.5 C 0 34.925781 10.074219 45 22.5 45 C 34.925781 45 45 34.925781 45 22.5 C 45 10.074219 34.925781 0 22.5 0 " fill-opacity="1" fill-rule="nonzero"/><g clip-path="url(#id1)"><path fill="rgb(100%, 100%, 100%)" d="M 36.195312 19.457031 C 34.515625 21.242188 32.136719 22.363281 29.496094 22.363281 C 24.410156 22.363281 20.273438 18.226562 20.273438 13.140625 C 20.273438 12.5625 20.332031 12 20.4375 11.453125 L 9.972656 11.453125 L 6.277344 22.082031 C 5.929688 23.078125 6.0625 24.207031 6.632812 25.101562 C 7.167969 25.941406 7.984375 26.457031 8.9375 26.554688 C 9.050781 26.5625 9.171875 26.570312 9.289062 26.570312 C 11.175781 26.570312 12.714844 25.035156 12.714844 23.144531 L 14.132812 23.144531 C 14.132812 25.035156 15.667969 26.570312 17.558594 26.570312 C 19.445312 26.570312 20.980469 25.035156 20.980469 23.144531 L 22.402344 23.144531 C 22.402344 25.035156 23.9375 26.570312 25.824219 26.570312 C 27.714844 26.570312 29.25 25.035156 29.25 23.144531 L 30.671875 23.144531 C 30.671875 25.035156 32.207031 26.570312 34.09375 26.570312 C 34.214844 26.570312 34.332031 26.5625 34.449219 26.554688 C 35.398438 26.457031 36.21875 25.941406 36.753906 25.101562 C 37.320312 24.207031 37.453125 23.078125 37.109375 22.082031 L 36.195312 19.457031 " fill-opacity="1" fill-rule="nonzero"/></g><g clip-path="url(#id2)"><path fill="rgb(100%, 100%, 100%)" d="M 29.960938 25.65625 C 29.109375 27.050781 27.578125 27.988281 25.824219 27.988281 C 24.074219 27.988281 22.542969 27.050781 21.691406 25.65625 C 20.839844 27.050781 19.3125 27.988281 17.558594 27.988281 C 15.808594 27.988281 14.273438 27.050781 13.425781 25.65625 C 12.574219 27.050781 11.039062 27.988281 9.289062 27.988281 C 9.164062 27.988281 9.042969 27.980469 8.921875 27.972656 L 8.921875 36.550781 L 34.460938 36.550781 L 34.460938 27.972656 C 34.339844 27.980469 34.21875 27.988281 34.09375 27.988281 C 32.34375 27.988281 30.8125 27.050781 29.960938 25.65625 " fill-opacity="1" fill-rule="nonzero"/></g><g clip-path="url(#id3)"><path fill="rgb(100%, 100%, 100%)" d="M 25.824219 10.367188 L 26.566406 8.144531 L 27.914062 8.59375 L 27.320312 10.367188 L 31.671875 10.367188 L 31.082031 8.59375 L 32.425781 8.144531 L 33.167969 10.367188 L 35.300781 10.367188 L 34.160156 17.203125 L 24.832031 17.203125 L 23.691406 10.367188 Z M 29.496094 20.945312 C 33.800781 20.945312 37.300781 17.445312 37.300781 13.140625 C 37.300781 8.835938 33.800781 5.335938 29.496094 5.335938 C 25.195312 5.335938 21.691406 8.835938 21.691406 13.140625 C 21.691406 17.445312 25.195312 20.945312 29.496094 20.945312 " fill-opacity="1" fill-rule="nonzero"/></g></svg>