<svg xmlns="http://www.w3.org/2000/svg" xmlns:xlink="http://www.w3.org/1999/xlink" width="60" zoomAndPan="magnify" viewBox="0 0 45 44.999999" height="60" preserveAspectRatio="xMidYMid meet" version="1.0"><defs><clipPath id="id1"><path d="M 4.5 16 L 40.5 16 L 40.5 22 L 4.5 22 Z M 4.5 16 " clip-rule="nonzero"/></clipPath><clipPath id="id2"><path d="M 6 21 L 39 21 L 39 36.480469 L 6 36.480469 Z M 6 21 " clip-rule="nonzero"/></clipPath><clipPath id="id3"><path d="M 7 8.730469 L 15 8.730469 L 15 16 L 7 16 Z M 7 8.730469 " clip-rule="nonzero"/></clipPath><clipPath id="id4"><path d="M 15 8.730469 L 22 8.730469 L 22 16 L 15 16 Z M 15 8.730469 " clip-rule="nonzero"/></clipPath><clipPath id="id5"><path d="M 21 8.730469 L 28 8.730469 L 28 16 L 21 16 Z M 21 8.730469 " clip-rule="nonzero"/></clipPath><clipPath id="id6"><path d="M 27 8.730469 L 33 8.730469 L 33 16 L 27 16 Z M 27 8.730469 " clip-rule="nonzero"/></clipPath><clipPath id="id7"><path d="M 33 8.730469 L 38 8.730469 L 38 16 L 33 16 Z M 33 8.730469 " clip-rule="nonzero"/></clipPath></defs><rect x="-4.5" width="54" fill="rgb(100%, 100%, 100%)" y="-4.5" height="53.999999" fill-opacity="1"/><rect x="-4.5" width="54" fill="rgb(100%, 100%, 100%)" y="-4.5" height="53.999999" fill-opacity="1"/><rect x="-4.5" width="54" fill="rgb(100%, 100%, 100%)" y="-4.5" height="53.999999" fill-opacity="1"/><path fill="rgb(20.779419%, 19.60907%, 18.429565%)" d="M 22.5 0 C 10.074219 0 0 10.074219 0 22.5 C 0 34.925781 10.074219 45 22.5 45 C 34.925781 45 45 34.925781 45 22.5 C 45 10.074219 34.925781 0 22.5 0 " fill-opacity="1" fill-rule="nonzero"/><g clip-path="url(#id1)"><path fill="rgb(100%, 100%, 100%)" d="M 39.621094 21.917969 L 5.378906 21.917969 C 4.902344 21.917969 4.511719 21.527344 4.511719 21.042969 L 4.511719 17.671875 C 4.511719 17.191406 4.902344 16.796875 5.378906 16.796875 L 39.621094 16.796875 C 40.097656 16.796875 40.488281 17.191406 40.488281 17.671875 L 40.488281 21.042969 C 40.488281 21.527344 40.097656 21.917969 39.621094 21.917969 Z M 39.621094 21.917969 " fill-opacity="1" fill-rule="nonzero"/></g><g clip-path="url(#id2)"><path fill="rgb(100%, 100%, 100%)" d="M 6.714844 21.917969 L 6.714844 36.476562 L 38.285156 36.476562 L 38.285156 22.792969 Z M 15.40625 31.296875 C 15.40625 31.78125 15.015625 32.171875 14.539062 32.171875 L 10.375 32.171875 C 9.894531 32.171875 9.507812 31.78125 9.507812 31.296875 L 9.507812 27.101562 C 9.507812 26.621094 9.894531 26.226562 10.375 26.226562 L 14.539062 26.226562 C 15.015625 26.226562 15.40625 26.621094 15.40625 27.101562 Z M 25.445312 31.296875 C 25.445312 31.78125 25.058594 32.171875 24.578125 32.171875 L 20.421875 32.171875 C 19.941406 32.171875 19.554688 31.78125 19.554688 31.296875 L 19.554688 27.101562 C 19.554688 26.621094 19.941406 26.226562 20.421875 26.226562 L 24.578125 26.226562 C 25.058594 26.226562 25.445312 26.621094 25.445312 27.101562 Z M 35.492188 31.296875 C 35.492188 31.78125 35.105469 32.171875 34.625 32.171875 L 30.460938 32.171875 C 29.980469 32.171875 29.59375 31.78125 29.59375 31.296875 L 29.59375 27.101562 C 29.59375 26.621094 29.980469 26.226562 30.460938 26.226562 L 34.625 26.226562 C 35.105469 26.226562 35.492188 26.621094 35.492188 27.101562 Z M 35.492188 31.296875 " fill-opacity="1" fill-rule="nonzero"/></g><g clip-path="url(#id3)"><path fill="rgb(100%, 100%, 100%)" d="M 9.15625 8.953125 L 10.910156 13.941406 L 12.652344 8.953125 L 14.5 8.953125 L 14.5 15.828125 L 13.089844 15.828125 L 13.089844 13.949219 L 13.230469 10.707031 L 11.386719 15.828125 L 10.421875 15.828125 L 8.585938 10.710938 L 8.726562 13.949219 L 8.726562 15.828125 L 7.320312 15.828125 L 7.320312 8.953125 Z M 9.15625 8.953125 " fill-opacity="1" fill-rule="nonzero"/></g><g clip-path="url(#id4)"><path fill="rgb(100%, 100%, 100%)" d="M 21.332031 12.546875 C 21.332031 13.757812 20.9375 14.882812 19.957031 15.507812 C 18.601562 16.363281 16.550781 15.875 15.890625 14.339844 C 15.597656 13.757812 15.496094 12.972656 15.519531 12.246094 C 15.519531 11.035156 15.925781 9.890625 16.910156 9.273438 C 17.761719 8.722656 19.089844 8.722656 19.941406 9.273438 C 21.019531 9.9375 21.386719 11.265625 21.332031 12.546875 Z M 19.90625 12.234375 C 19.90625 11.515625 19.777344 10.96875 19.523438 10.59375 C 19.0625 9.84375 17.800781 9.84375 17.332031 10.585938 C 17.023438 10.976562 16.914062 11.839844 16.945312 12.546875 C 16.957031 13.699219 17.269531 14.730469 18.433594 14.761719 C 19.726562 14.746094 19.941406 13.425781 19.90625 12.234375 Z M 19.90625 12.234375 " fill-opacity="1" fill-rule="nonzero"/></g><g clip-path="url(#id5)"><path fill="rgb(100%, 100%, 100%)" d="M 27.089844 10.101562 L 25 10.101562 L 25 15.828125 L 23.59375 15.828125 L 23.59375 10.101562 L 21.53125 10.101562 L 21.53125 8.953125 L 27.089844 8.953125 Z M 27.089844 10.101562 " fill-opacity="1" fill-rule="nonzero"/></g><g clip-path="url(#id6)"><path fill="rgb(100%, 100%, 100%)" d="M 31.996094 12.839844 L 29.296875 12.839844 L 29.296875 14.691406 L 32.464844 14.691406 L 32.464844 15.828125 L 27.890625 15.828125 L 27.890625 8.953125 L 32.453125 8.953125 L 32.453125 10.101562 L 29.296875 10.101562 L 29.296875 11.738281 L 31.996094 11.738281 Z M 31.996094 12.839844 " fill-opacity="1" fill-rule="nonzero"/></g><g clip-path="url(#id7)"><path fill="rgb(100%, 100%, 100%)" d="M 34.695312 14.691406 L 37.679688 14.691406 L 37.679688 15.828125 L 33.289062 15.828125 L 33.289062 8.953125 L 34.695312 8.953125 Z M 34.695312 14.691406 " fill-opacity="1" fill-rule="nonzero"/></g></svg>