<svg xmlns="http://www.w3.org/2000/svg" xmlns:xlink="http://www.w3.org/1999/xlink" width="60" zoomAndPan="magnify" viewBox="0 0 45 44.999999" height="60" preserveAspectRatio="xMidYMid meet" version="1.0"><defs><clipPath id="id1"><path d="M 8.84375 3.75 L 35.84375 3.75 L 35.84375 39.75 L 8.84375 39.75 Z M 8.84375 3.75 " clip-rule="nonzero"/></clipPath></defs><rect x="-4.5" width="54" fill="rgb(100%, 100%, 100%)" y="-4.5" height="53.999999" fill-opacity="1"/><rect x="-4.5" width="54" fill="rgb(100%, 100%, 100%)" y="-4.5" height="53.999999" fill-opacity="1"/><rect x="-4.5" width="54" fill="rgb(100%, 100%, 100%)" y="-4.5" height="53.999999" fill-opacity="1"/><path fill="rgb(0%, 29.019165%, 67.83905%)" d="M 22.5 0 C 10.074219 0 0 10.074219 0 22.5 C 0 34.925781 10.074219 45 22.5 45 C 34.925781 45 45 34.925781 45 22.5 C 45 10.074219 34.925781 0 22.5 0 " fill-opacity="1" fill-rule="nonzero"/><g clip-path="url(#id1)"><path fill="rgb(100%, 100%, 100%)" d="M 18.257812 31.679688 C 17.554688 31.679688 16.871094 31.457031 16.300781 31.0625 L 21.730469 28.042969 L 21.730469 28.167969 C 21.730469 30.109375 20.175781 31.679688 18.257812 31.679688 Z M 24.183594 17.40625 L 26.023438 17.40625 C 26.703125 17.40625 27.25 16.851562 27.25 16.164062 C 27.25 15.480469 26.703125 14.921875 26.023438 14.921875 L 24.183594 14.921875 L 24.183594 12.261719 C 25.679688 11.804688 26.835938 10.550781 27.160156 8.988281 L 29.261719 9.875 C 31.765625 10.929688 33.386719 13.390625 33.386719 16.132812 C 33.386719 18.605469 32.058594 20.882812 29.914062 22.074219 L 24.183594 25.261719 Z M 19.886719 8.097656 C 19.886719 6.386719 21.265625 4.996094 22.957031 4.996094 C 24.648438 4.996094 26.023438 6.386719 26.023438 8.097656 C 26.023438 9.367188 25.265625 10.457031 24.183594 10.9375 L 24.183594 9.339844 C 24.183594 8.652344 23.632812 8.097656 22.957031 8.097656 C 22.277344 8.097656 21.730469 8.652344 21.730469 9.339844 L 21.730469 10.9375 C 20.648438 10.457031 19.886719 9.367188 19.886719 8.097656 Z M 35.230469 26.09375 L 30.320312 27.335938 L 32.160156 28.574219 L 30.109375 30.652344 C 29.460938 31.308594 28.574219 31.679688 27.652344 31.679688 C 25.738281 31.679688 24.183594 30.109375 24.183594 28.167969 L 24.183594 26.679688 L 30.507812 23.160156 C 33.039062 21.753906 34.613281 19.058594 34.613281 16.132812 C 34.613281 12.886719 32.699219 9.980469 29.734375 8.730469 L 27.230469 7.675781 C 27.019531 5.476562 25.183594 3.753906 22.957031 3.753906 C 20.585938 3.753906 18.660156 5.703125 18.660156 8.097656 C 18.660156 10.0625 19.957031 11.722656 21.730469 12.261719 L 21.730469 14.921875 L 19.886719 14.921875 C 19.210938 14.921875 18.660156 15.480469 18.660156 16.164062 C 18.660156 16.851562 19.210938 17.40625 19.886719 17.40625 L 21.730469 17.40625 L 21.730469 26.628906 L 15.339844 30.179688 L 13.75 28.574219 L 15.59375 27.335938 L 10.683594 26.09375 L 10.070312 31.058594 L 11.910156 29.816406 L 12.992188 31.574219 C 10.410156 33.445312 8.84375 36.480469 8.84375 39.746094 L 10.070312 39.746094 C 10.070312 36.898438 11.425781 34.253906 13.671875 32.605469 C 14.753906 34.097656 16.265625 35.214844 18.011719 35.804688 C 19.636719 36.351562 21.070312 37.363281 22.140625 38.714844 L 22.957031 39.746094 L 23.769531 38.714844 C 24.84375 37.363281 26.277344 36.351562 27.902344 35.804688 C 29.863281 35.144531 31.53125 33.8125 32.628906 32.039062 L 34 29.816406 L 35.84375 31.058594 L 35.230469 26.09375 " fill-opacity="1" fill-rule="nonzero"/></g></svg>