<svg xmlns="http://www.w3.org/2000/svg" xmlns:xlink="http://www.w3.org/1999/xlink" width="60" zoomAndPan="magnify" viewBox="0 0 45 44.999999" height="60" preserveAspectRatio="xMidYMid meet" version="1.0"><defs><clipPath id="id1"><path d="M 7.292969 7.292969 L 38.042969 7.292969 L 38.042969 38.042969 L 7.292969 38.042969 Z M 7.292969 7.292969 " clip-rule="nonzero"/></clipPath></defs><rect x="-4.5" width="54" fill="rgb(100%, 100%, 100%)" y="-4.5" height="53.999999" fill-opacity="1"/><rect x="-4.5" width="54" fill="rgb(100%, 100%, 100%)" y="-4.5" height="53.999999" fill-opacity="1"/><rect x="-4.5" width="54" fill="rgb(100%, 100%, 100%)" y="-4.5" height="53.999999" fill-opacity="1"/><path fill="rgb(0%, 50.19989%, 21.569824%)" d="M 22.5 0 C 10.074219 0 0 10.074219 0 22.5 C 0 34.925781 10.074219 45 22.5 45 C 34.925781 45 45 34.925781 45 22.5 C 45 10.074219 34.925781 0 22.5 0 " fill-opacity="1" fill-rule="nonzero"/><g clip-path="url(#id1)"><path fill="rgb(100%, 100%, 100%)" d="M 10.25 15.324219 L 10.25 31.222656 C 10.25 32.976562 11.660156 34.390625 13.414062 34.390625 L 22.375 34.390625 L 19.964844 36.800781 C 19.671875 37.09375 19.671875 37.554688 19.964844 37.824219 C 20.109375 37.96875 20.304688 38.042969 20.476562 38.042969 C 20.644531 38.042969 20.839844 37.96875 20.988281 37.824219 L 24.640625 34.171875 C 24.929688 33.878906 24.929688 33.414062 24.640625 33.148438 L 20.988281 29.496094 C 20.695312 29.203125 20.230469 29.203125 19.964844 29.496094 C 19.671875 29.789062 19.671875 30.25 19.964844 30.519531 L 22.375 32.929688 L 13.414062 32.929688 C 12.464844 32.929688 11.710938 32.175781 11.710938 31.222656 L 11.710938 15.324219 C 13.367188 14.984375 14.632812 13.5 14.632812 11.746094 C 14.632812 9.726562 13 8.09375 10.980469 8.09375 C 8.960938 8.09375 7.328125 9.726562 7.328125 11.746094 C 7.328125 13.5 8.59375 14.984375 10.25 15.324219 Z M 10.980469 9.554688 C 12.199219 9.554688 13.171875 10.53125 13.171875 11.746094 C 13.171875 12.964844 12.199219 13.9375 10.980469 13.9375 C 9.761719 13.9375 8.789062 12.964844 8.789062 11.746094 C 8.789062 10.53125 9.761719 9.554688 10.980469 9.554688 Z M 24.347656 15.910156 C 24.492188 16.054688 24.6875 16.128906 24.859375 16.128906 C 25.027344 16.128906 25.222656 16.054688 25.371094 15.910156 C 25.660156 15.617188 25.660156 15.15625 25.371094 14.886719 L 22.957031 12.476562 L 29.484375 12.476562 C 31.773438 12.476562 33.621094 14.328125 33.621094 16.617188 L 33.621094 30.082031 C 31.96875 30.421875 30.699219 31.90625 30.699219 33.660156 C 30.699219 35.679688 32.332031 37.3125 34.351562 37.3125 C 36.375 37.3125 38.003906 35.679688 38.003906 33.660156 C 38.003906 31.90625 36.738281 30.421875 35.082031 30.082031 L 35.082031 16.617188 C 35.082031 13.523438 32.574219 11.015625 29.484375 11.015625 L 22.957031 11.015625 L 25.371094 8.605469 C 25.660156 8.3125 25.660156 7.851562 25.371094 7.582031 C 25.078125 7.292969 24.613281 7.292969 24.347656 7.582031 L 20.695312 11.234375 C 20.402344 11.527344 20.402344 11.992188 20.695312 12.257812 Z M 36.542969 33.660156 C 36.542969 34.875 35.570312 35.851562 34.351562 35.851562 C 33.136719 35.851562 32.160156 34.875 32.160156 33.660156 C 32.160156 32.441406 33.136719 31.46875 34.351562 31.46875 C 35.570312 31.46875 36.542969 32.441406 36.542969 33.660156 Z M 36.542969 33.660156 " fill-opacity="1" fill-rule="nonzero"/></g></svg>