<svg xmlns="http://www.w3.org/2000/svg" xmlns:xlink="http://www.w3.org/1999/xlink" width="60" zoomAndPan="magnify" viewBox="0 0 45 44.999999" height="60" preserveAspectRatio="xMidYMid meet" version="1.0"><defs><clipPath id="id1"><path d="M 5.359375 6.472656 L 39.859375 6.472656 L 39.859375 38.722656 L 5.359375 38.722656 Z M 5.359375 6.472656 " clip-rule="nonzero"/></clipPath></defs><rect x="-4.5" width="54" fill="rgb(100%, 100%, 100%)" y="-4.5" height="53.999999" fill-opacity="1"/><rect x="-4.5" width="54" fill="rgb(100%, 100%, 100%)" y="-4.5" height="53.999999" fill-opacity="1"/><rect x="-4.5" width="54" fill="rgb(100%, 100%, 100%)" y="-4.5" height="53.999999" fill-opacity="1"/><path fill="rgb(21.958923%, 71.369934%, 100%)" d="M 22.5 0 C 10.074219 0 0 10.074219 0 22.5 C 0 34.925781 10.074219 45 22.5 45 C 34.925781 45 45 34.925781 45 22.5 C 45 10.074219 34.925781 0 22.5 0 " fill-opacity="1" fill-rule="nonzero"/><g clip-path="url(#id1)"><path fill="rgb(100%, 100%, 100%)" d="M 11.132812 6.527344 C 8.519531 6.527344 5.394531 11.175781 5.394531 13.003906 C 5.394531 14.730469 7.222656 16.152344 8.980469 16.457031 C 8.898438 16.691406 8.800781 16.925781 8.660156 17.148438 C 7.875 18.398438 7.519531 19.847656 7.636719 21.332031 C 7.917969 24.855469 11.003906 27.621094 14.65625 27.621094 L 19.261719 27.621094 C 18.804688 28.644531 18.1875 30.59375 18.164062 33.722656 C 18.164062 33.820312 18.191406 33.917969 18.242188 34.003906 C 18.351562 34.199219 21.066406 38.722656 28.992188 38.722656 C 36.921875 38.722656 39.632812 34.199219 39.746094 34.003906 C 39.796875 33.917969 39.820312 33.820312 39.820312 33.722656 C 39.792969 29.875 39.09375 27.820312 38.78125 27.097656 C 38.980469 26.707031 39.265625 25.960938 39.265625 24.84375 C 39.265625 22.074219 37.550781 20.117188 37.480469 20.035156 C 37.28125 19.8125 36.945312 19.789062 36.714844 19.972656 L 33.296875 22.730469 C 32.667969 22.507812 31.160156 22.070312 28.992188 22.070312 C 27.925781 22.070312 27.023438 22.175781 26.3125 22.308594 C 26.386719 21.992188 26.445312 21.664062 26.472656 21.332031 C 26.589844 19.84375 26.238281 18.398438 25.449219 17.148438 C 25.3125 16.925781 25.214844 16.695312 25.132812 16.457031 C 26.890625 16.152344 28.714844 14.726562 28.714844 13.003906 C 28.714844 11.175781 25.589844 6.527344 22.980469 6.527344 C 22.136719 6.527344 21.363281 6.90625 20.84375 7.539062 C 19.628906 6.863281 18.246094 6.492188 16.8125 6.53125 C 15.511719 6.570312 14.296875 6.917969 13.230469 7.496094 C 12.710938 6.890625 11.949219 6.527344 11.132812 6.527344 Z M 11.132812 7.636719 C 11.566406 7.636719 11.976562 7.8125 12.28125 8.109375 C 10.34375 9.558594 9.097656 11.863281 9.097656 14.484375 C 9.097656 14.734375 9.109375 14.992188 9.136719 15.25 C 9.140625 15.285156 9.136719 15.324219 9.136719 15.359375 C 7.867188 15.132812 6.507812 14.125 6.507812 13.003906 C 6.507812 11.640625 9.234375 7.636719 11.132812 7.636719 Z M 17.039062 7.636719 C 20.070312 7.636719 22.839844 9.765625 23.667969 12.765625 C 23.878906 13.53125 23.949219 14.316406 23.875 15.105469 C 23.785156 16.023438 24.007812 16.933594 24.511719 17.738281 C 25.167969 18.785156 25.464844 19.996094 25.367188 21.242188 C 25.128906 24.195312 22.535156 26.511719 19.453125 26.511719 L 17.609375 26.511719 L 17.609375 23.097656 C 18.914062 22.710938 19.832031 21.085938 19.832031 20.542969 C 19.832031 19.621094 18.398438 19.292969 17.054688 19.292969 C 15.714844 19.292969 14.28125 19.621094 14.28125 20.542969 C 14.28125 21.085938 15.195312 22.710938 16.5 23.097656 L 16.5 26.511719 L 14.65625 26.511719 C 11.578125 26.511719 8.980469 24.195312 8.746094 21.242188 C 8.644531 19.996094 8.941406 18.785156 9.601562 17.738281 C 10.109375 16.929688 10.332031 16.03125 10.242188 15.136719 C 10.21875 14.921875 10.207031 14.703125 10.207031 14.484375 C 10.207031 10.757812 13.125 7.753906 16.847656 7.640625 C 16.910156 7.640625 16.976562 7.636719 17.039062 7.636719 Z M 22.980469 7.636719 C 24.875 7.636719 27.605469 11.640625 27.605469 13.003906 C 27.605469 14.121094 26.246094 15.128906 24.976562 15.359375 C 24.980469 15.308594 24.972656 15.261719 24.976562 15.210938 C 25.066406 14.289062 24.988281 13.363281 24.738281 12.46875 C 24.25 10.703125 23.179688 9.199219 21.78125 8.144531 C 22.089844 7.824219 22.519531 7.636719 22.980469 7.636719 Z M 17.054688 8.746094 C 16.75 8.746094 16.5 8.996094 16.5 9.304688 L 16.5 10.414062 C 16.5 10.71875 16.75 10.96875 17.054688 10.96875 C 17.363281 10.96875 17.609375 10.71875 17.609375 10.414062 L 17.609375 9.304688 C 17.609375 8.996094 17.363281 8.746094 17.054688 8.746094 Z M 14.28125 9.304688 C 13.972656 9.304688 13.722656 9.550781 13.722656 9.859375 L 13.722656 10.96875 C 13.722656 11.273438 13.972656 11.523438 14.28125 11.523438 C 14.585938 11.523438 14.835938 11.273438 14.835938 10.96875 L 14.835938 9.859375 C 14.835938 9.550781 14.585938 9.304688 14.28125 9.304688 Z M 19.832031 9.304688 C 19.523438 9.304688 19.277344 9.550781 19.277344 9.859375 L 19.277344 10.96875 C 19.277344 11.273438 19.523438 11.523438 19.832031 11.523438 C 20.140625 11.523438 20.386719 11.273438 20.386719 10.96875 L 20.386719 9.859375 C 20.386719 9.550781 20.140625 9.304688 19.832031 9.304688 Z M 14.28125 15.410156 C 14.132812 15.410156 13.992188 15.4375 13.855469 15.492188 C 13.71875 15.550781 13.597656 15.628906 13.492188 15.734375 C 13.390625 15.839844 13.308594 15.957031 13.253906 16.09375 C 13.195312 16.230469 13.167969 16.371094 13.167969 16.519531 C 13.167969 16.667969 13.195312 16.808594 13.253906 16.945312 C 13.308594 17.078125 13.390625 17.199219 13.492188 17.304688 C 13.597656 17.40625 13.71875 17.488281 13.855469 17.542969 C 13.992188 17.601562 14.132812 17.628906 14.28125 17.628906 C 14.425781 17.628906 14.566406 17.601562 14.703125 17.542969 C 14.839844 17.488281 14.960938 17.40625 15.066406 17.304688 C 15.167969 17.199219 15.25 17.078125 15.304688 16.945312 C 15.363281 16.808594 15.390625 16.667969 15.390625 16.519531 C 15.390625 16.371094 15.363281 16.230469 15.304688 16.09375 C 15.25 15.957031 15.167969 15.839844 15.066406 15.734375 C 14.960938 15.628906 14.839844 15.550781 14.703125 15.492188 C 14.566406 15.4375 14.425781 15.410156 14.28125 15.410156 Z M 19.832031 15.410156 C 19.683594 15.410156 19.542969 15.4375 19.40625 15.492188 C 19.269531 15.550781 19.152344 15.628906 19.046875 15.734375 C 18.941406 15.839844 18.863281 15.957031 18.804688 16.09375 C 18.75 16.230469 18.722656 16.371094 18.722656 16.519531 C 18.722656 16.667969 18.75 16.808594 18.804688 16.945312 C 18.863281 17.078125 18.941406 17.199219 19.046875 17.304688 C 19.152344 17.40625 19.269531 17.488281 19.40625 17.542969 C 19.542969 17.601562 19.683594 17.628906 19.832031 17.628906 C 19.980469 17.628906 20.121094 17.601562 20.257812 17.542969 C 20.394531 17.488281 20.511719 17.40625 20.617188 17.304688 C 20.722656 17.199219 20.800781 17.078125 20.859375 16.945312 C 20.914062 16.808594 20.941406 16.667969 20.941406 16.519531 C 20.941406 16.371094 20.914062 16.230469 20.859375 16.09375 C 20.800781 15.957031 20.722656 15.839844 20.617188 15.734375 C 20.511719 15.628906 20.394531 15.550781 20.257812 15.492188 C 20.121094 15.4375 19.980469 15.410156 19.832031 15.410156 Z M 17.054688 20.40625 C 17.859375 20.40625 18.425781 20.546875 18.667969 20.660156 C 18.46875 21.101562 17.773438 22.070312 17.054688 22.070312 C 16.324219 22.070312 15.617188 21.070312 15.433594 20.664062 C 15.671875 20.550781 16.242188 20.40625 17.054688 20.40625 Z M 36.96875 21.195312 C 37.410156 21.84375 38.15625 23.179688 38.15625 24.84375 C 38.15625 26.09375 37.710938 26.730469 37.710938 26.734375 C 37.578125 26.910156 37.5625 27.144531 37.671875 27.335938 C 37.679688 27.355469 38.652344 29.128906 38.707031 33.566406 C 38.234375 34.265625 35.628906 37.613281 28.992188 37.613281 C 22.351562 37.613281 19.746094 34.261719 19.277344 33.566406 C 19.332031 29.863281 20.265625 28.011719 20.550781 27.53125 C 22.929688 27.160156 24.9375 25.625 25.890625 23.535156 C 26.601562 23.359375 27.65625 23.179688 28.992188 23.179688 C 31.585938 23.179688 33.152344 23.863281 33.167969 23.871094 C 33.359375 23.957031 33.582031 23.929688 33.742188 23.796875 Z M 28.898438 24.289062 C 28.019531 24.289062 27.167969 24.371094 26.375 24.535156 C 26.074219 24.597656 25.878906 24.890625 25.941406 25.191406 C 25.996094 25.453125 26.226562 25.636719 26.484375 25.636719 C 26.523438 25.636719 26.558594 25.632812 26.597656 25.625 C 27.320312 25.476562 28.09375 25.398438 28.898438 25.398438 C 29.015625 25.398438 29.128906 25.402344 29.242188 25.40625 C 29.535156 25.402344 29.804688 25.171875 29.8125 24.867188 C 29.820312 24.558594 29.578125 24.304688 29.273438 24.296875 C 29.152344 24.292969 29.027344 24.289062 28.898438 24.289062 Z M 31.394531 24.570312 C 31.179688 24.609375 31 24.769531 30.949219 24.996094 C 30.882812 25.292969 31.070312 25.589844 31.367188 25.660156 C 31.902344 25.78125 32.207031 25.898438 32.210938 25.898438 L 32.375 25.96875 C 32.449219 26.003906 32.527344 26.019531 32.601562 26.019531 C 32.8125 26.019531 33.015625 25.894531 33.109375 25.691406 C 33.234375 25.410156 33.109375 25.082031 32.828125 24.957031 L 32.640625 24.875 C 32.625 24.867188 32.261719 24.722656 31.613281 24.578125 C 31.539062 24.558594 31.464844 24.558594 31.394531 24.570312 Z M 26.496094 28.730469 C 26.347656 28.730469 26.207031 28.757812 26.070312 28.816406 C 25.933594 28.871094 25.8125 28.953125 25.710938 29.054688 C 25.605469 29.160156 25.523438 29.28125 25.46875 29.414062 C 25.414062 29.550781 25.382812 29.695312 25.382812 29.839844 C 25.382812 29.988281 25.414062 30.128906 25.46875 30.265625 C 25.523438 30.402344 25.605469 30.523438 25.710938 30.625 C 25.8125 30.730469 25.933594 30.808594 26.070312 30.867188 C 26.207031 30.921875 26.347656 30.949219 26.496094 30.949219 C 26.640625 30.949219 26.785156 30.921875 26.917969 30.867188 C 27.054688 30.808594 27.175781 30.730469 27.28125 30.625 C 27.382812 30.523438 27.464844 30.402344 27.519531 30.265625 C 27.578125 30.128906 27.605469 29.988281 27.605469 29.839844 C 27.605469 29.695312 27.578125 29.550781 27.519531 29.414062 C 27.464844 29.28125 27.382812 29.160156 27.28125 29.054688 C 27.175781 28.953125 27.054688 28.871094 26.917969 28.816406 C 26.785156 28.757812 26.640625 28.730469 26.496094 28.730469 Z M 31.492188 28.730469 C 31.34375 28.730469 31.203125 28.757812 31.066406 28.816406 C 30.929688 28.871094 30.808594 28.953125 30.707031 29.054688 C 30.601562 29.160156 30.523438 29.28125 30.464844 29.414062 C 30.410156 29.550781 30.382812 29.695312 30.382812 29.839844 C 30.382812 29.988281 30.410156 30.128906 30.464844 30.265625 C 30.523438 30.402344 30.601562 30.523438 30.707031 30.625 C 30.808594 30.730469 30.929688 30.808594 31.066406 30.867188 C 31.203125 30.921875 31.34375 30.949219 31.492188 30.949219 C 31.640625 30.949219 31.78125 30.921875 31.917969 30.867188 C 32.050781 30.808594 32.171875 30.730469 32.277344 30.625 C 32.382812 30.523438 32.460938 30.402344 32.515625 30.265625 C 32.574219 30.128906 32.601562 29.988281 32.601562 29.839844 C 32.601562 29.695312 32.574219 29.550781 32.515625 29.414062 C 32.460938 29.28125 32.382812 29.160156 32.277344 29.054688 C 32.171875 28.953125 32.050781 28.871094 31.917969 28.816406 C 31.78125 28.757812 31.640625 28.730469 31.492188 28.730469 Z M 28.992188 31.507812 C 27.917969 31.507812 27.050781 31.816406 27.050781 32.199219 C 27.050781 32.453125 27.609375 33.269531 28.175781 33.804688 C 27.863281 34.210938 27.257812 34.835938 26.496094 34.835938 C 26.1875 34.835938 25.9375 35.085938 25.9375 35.390625 C 25.9375 35.699219 26.1875 35.945312 26.496094 35.945312 C 27.617188 35.945312 28.453125 35.207031 28.929688 34.640625 C 29.457031 35.199219 30.371094 35.945312 31.492188 35.945312 C 31.796875 35.945312 32.046875 35.699219 32.046875 35.390625 C 32.046875 35.085938 31.796875 34.835938 31.492188 34.835938 C 30.765625 34.835938 30.117188 34.289062 29.734375 33.871094 C 30.324219 33.34375 30.9375 32.464844 30.9375 32.199219 C 30.9375 31.816406 30.066406 31.507812 28.992188 31.507812 Z M 28.992188 31.507812 " fill-opacity="1" fill-rule="nonzero"/></g></svg>