<svg xmlns="http://www.w3.org/2000/svg" xmlns:xlink="http://www.w3.org/1999/xlink" width="60" zoomAndPan="magnify" viewBox="0 0 45 44.999999" height="60" preserveAspectRatio="xMidYMid meet" version="1.0"><defs><clipPath id="id1"><path d="M 25 4.5 L 28 4.5 L 28 7 L 25 7 Z M 25 4.5 " clip-rule="nonzero"/></clipPath><clipPath id="id2"><path d="M 21 4.5 L 25 4.5 L 25 6 L 21 6 Z M 21 4.5 " clip-rule="nonzero"/></clipPath><clipPath id="id3"><path d="M 39 21 L 40.5 21 L 40.5 25 L 39 25 Z M 39 21 " clip-rule="nonzero"/></clipPath><clipPath id="id4"><path d="M 39 18 L 40.5 18 L 40.5 21 L 39 21 Z M 39 18 " clip-rule="nonzero"/></clipPath><clipPath id="id5"><path d="M 39 25 L 40.5 25 L 40.5 27 L 39 27 Z M 39 25 " clip-rule="nonzero"/></clipPath><clipPath id="id6"><path d="M 4.5 24 L 6 24 L 6 27 L 4.5 27 Z M 4.5 24 " clip-rule="nonzero"/></clipPath><clipPath id="id7"><path d="M 17 38 L 20 38 L 20 40.5 L 17 40.5 Z M 17 38 " clip-rule="nonzero"/></clipPath><clipPath id="id8"><path d="M 4.5 17 L 7 17 L 7 20 L 4.5 20 Z M 4.5 17 " clip-rule="nonzero"/></clipPath><clipPath id="id9"><path d="M 24 39 L 27 39 L 27 40.5 L 24 40.5 Z M 24 39 " clip-rule="nonzero"/></clipPath><clipPath id="id10"><path d="M 20 39 L 24 39 L 24 40.5 L 20 40.5 Z M 20 39 " clip-rule="nonzero"/></clipPath><clipPath id="id11"><path d="M 18 4.5 L 21 4.5 L 21 6 L 18 6 Z M 18 4.5 " clip-rule="nonzero"/></clipPath><clipPath id="id12"><path d="M 4.5 20 L 6 20 L 6 24 L 4.5 24 Z M 4.5 20 " clip-rule="nonzero"/></clipPath><clipPath id="id13"><path d="M 24 24 L 40.5 24 L 40.5 40.5 L 24 40.5 Z M 24 24 " clip-rule="nonzero"/></clipPath></defs><rect x="-4.5" width="54" fill="rgb(100%, 100%, 100%)" y="-4.5" height="53.999999" fill-opacity="1"/><rect x="-4.5" width="54" fill="rgb(100%, 100%, 100%)" y="-4.5" height="53.999999" fill-opacity="1"/><rect x="-4.5" width="54" fill="rgb(100%, 100%, 100%)" y="-4.5" height="53.999999" fill-opacity="1"/><path fill="rgb(44.709778%, 57.249451%, 62.748718%)" d="M 22.5 0 C 10.074219 0 0 10.074219 0 22.5 C 0 34.925781 10.074219 45 22.5 45 C 34.925781 45 45 34.925781 45 22.5 C 45 10.074219 34.925781 0 22.5 0 " fill-opacity="1" fill-rule="nonzero"/><path fill="rgb(100%, 100%, 100%)" d="M 28.40625 14.0625 C 28.40625 10.800781 25.761719 8.15625 22.5 8.15625 C 19.238281 8.15625 16.59375 10.800781 16.59375 14.0625 C 16.59375 17.324219 19.238281 19.96875 22.5 19.96875 C 25.761719 19.96875 28.40625 17.324219 28.40625 14.0625 Z M 28.40625 14.0625 " fill-opacity="1" fill-rule="nonzero"/><path fill="rgb(100%, 100%, 100%)" d="M 33.523438 8.972656 C 33.722656 8.71875 33.664062 8.382812 33.414062 8.183594 C 33.101562 7.960938 32.765625 7.707031 32.457031 7.507812 C 32.203125 7.339844 31.835938 7.398438 31.667969 7.679688 C 31.5 7.929688 31.554688 8.296875 31.835938 8.464844 C 32.148438 8.664062 32.457031 8.886719 32.738281 9.113281 C 32.960938 9.253906 33.328125 9.226562 33.523438 8.972656 Z M 33.523438 8.972656 " fill-opacity="1" fill-rule="nonzero"/><g clip-path="url(#id1)"><path fill="rgb(100%, 100%, 100%)" d="M 25.3125 5.289062 C 25.257812 5.597656 25.453125 5.878906 25.761719 5.933594 C 26.128906 5.992188 26.492188 6.074219 26.832031 6.1875 C 26.886719 6.1875 26.914062 6.214844 26.972656 6.214844 C 27.226562 6.214844 27.449219 6.046875 27.507812 5.792969 C 27.589844 5.484375 27.394531 5.175781 27.113281 5.117188 C 26.71875 5.007812 26.351562 4.921875 25.960938 4.867188 C 25.648438 4.78125 25.367188 4.976562 25.3125 5.289062 Z M 25.3125 5.289062 " fill-opacity="1" fill-rule="nonzero"/></g><path fill="rgb(100%, 100%, 100%)" d="M 28.601562 6.160156 C 28.492188 6.441406 28.632812 6.777344 28.914062 6.890625 C 29.25 7.03125 29.585938 7.171875 29.925781 7.339844 C 30.007812 7.367188 30.09375 7.398438 30.179688 7.398438 C 30.375 7.398438 30.601562 7.285156 30.683594 7.085938 C 30.824219 6.804688 30.710938 6.46875 30.429688 6.328125 C 30.066406 6.160156 29.726562 5.992188 29.363281 5.851562 C 29.054688 5.738281 28.714844 5.878906 28.601562 6.160156 Z M 28.601562 6.160156 " fill-opacity="1" fill-rule="nonzero"/><g clip-path="url(#id2)"><path fill="rgb(100%, 100%, 100%)" d="M 22.445312 4.5 C 22.132812 4.5 21.882812 4.753906 21.882812 5.0625 C 21.882812 5.371094 22.132812 5.625 22.445312 5.625 L 22.5 5.625 C 22.867188 5.625 23.203125 5.625 23.570312 5.652344 C 23.570312 5.652344 23.597656 5.652344 23.597656 5.652344 C 23.878906 5.652344 24.132812 5.429688 24.160156 5.117188 C 24.1875 4.808594 23.933594 4.527344 23.625 4.527344 C 23.257812 4.5 22.867188 4.5 22.5 4.5 Z M 22.445312 4.5 " fill-opacity="1" fill-rule="nonzero"/></g><path fill="rgb(100%, 100%, 100%)" d="M 10.601562 9 C 10.320312 9.253906 10.011719 9.535156 9.757812 9.816406 C 9.535156 10.039062 9.535156 10.378906 9.757812 10.601562 C 9.871094 10.714844 10.011719 10.773438 10.152344 10.773438 C 10.292969 10.773438 10.433594 10.714844 10.546875 10.601562 C 10.800781 10.351562 11.082031 10.097656 11.363281 9.84375 C 11.585938 9.648438 11.617188 9.28125 11.417969 9.054688 C 11.195312 8.804688 10.828125 8.773438 10.601562 9 Z M 10.601562 9 " fill-opacity="1" fill-rule="nonzero"/><path fill="rgb(100%, 100%, 100%)" d="M 9 11.476562 C 8.746094 11.277344 8.410156 11.335938 8.210938 11.585938 C 7.988281 11.898438 7.734375 12.234375 7.539062 12.542969 C 7.367188 12.796875 7.425781 13.164062 7.707031 13.332031 C 7.789062 13.386719 7.902344 13.414062 8.015625 13.414062 C 8.183594 13.414062 8.382812 13.332031 8.492188 13.164062 C 8.691406 12.851562 8.914062 12.542969 9.140625 12.261719 C 9.28125 12.007812 9.226562 11.644531 9 11.476562 Z M 9 11.476562 " fill-opacity="1" fill-rule="nonzero"/><path fill="rgb(100%, 100%, 100%)" d="M 36.648438 12.289062 C 36.394531 12.460938 36.308594 12.824219 36.507812 13.078125 C 36.703125 13.386719 36.898438 13.695312 37.097656 14.007812 C 37.238281 14.257812 37.601562 14.371094 37.855469 14.203125 C 38.136719 14.035156 38.222656 13.695312 38.054688 13.445312 C 37.855469 13.105469 37.660156 12.769531 37.433594 12.460938 C 37.265625 12.207031 36.898438 12.121094 36.648438 12.289062 Z M 36.648438 12.289062 " fill-opacity="1" fill-rule="nonzero"/><g clip-path="url(#id3)"><path fill="rgb(100%, 100%, 100%)" d="M 40.472656 23.679688 C 40.5 23.257812 40.5 22.867188 40.5 22.445312 C 40.5 22.132812 40.246094 21.882812 39.9375 21.882812 C 39.628906 21.882812 39.375 22.132812 39.375 22.445312 C 39.375 22.835938 39.375 23.230469 39.347656 23.597656 C 39.320312 23.90625 39.570312 24.1875 39.882812 24.1875 C 40.164062 24.214844 40.445312 23.992188 40.472656 23.679688 Z M 40.472656 23.679688 " fill-opacity="1" fill-rule="nonzero"/></g><g clip-path="url(#id4)"><path fill="rgb(100%, 100%, 100%)" d="M 40.132812 18.929688 C 40.078125 18.617188 39.769531 18.421875 39.460938 18.476562 C 39.148438 18.535156 38.953125 18.84375 39.007812 19.152344 C 39.09375 19.519531 39.148438 19.882812 39.179688 20.25 C 39.207031 20.53125 39.460938 20.726562 39.742188 20.726562 C 40.078125 20.726562 40.332031 20.417969 40.304688 20.082031 C 40.273438 19.6875 40.21875 19.292969 40.132812 18.929688 Z M 40.132812 18.929688 " fill-opacity="1" fill-rule="nonzero"/></g><g clip-path="url(#id5)"><path fill="rgb(100%, 100%, 100%)" d="M 39.066406 25.789062 C 39.066406 25.820312 39.039062 25.875 39.039062 25.902344 C 39.375 26.242188 39.65625 26.605469 39.9375 27 C 40.023438 26.664062 40.105469 26.324219 40.164062 26.015625 C 40.21875 25.707031 40.023438 25.425781 39.710938 25.367188 C 39.402344 25.285156 39.121094 25.480469 39.066406 25.789062 Z M 39.066406 25.789062 " fill-opacity="1" fill-rule="nonzero"/></g><path fill="rgb(100%, 100%, 100%)" d="M 38.476562 17.015625 C 38.558594 17.242188 38.785156 17.410156 39.007812 17.410156 C 39.402344 17.410156 39.65625 17.015625 39.542969 16.648438 C 39.402344 16.285156 39.261719 15.917969 39.121094 15.554688 C 39.007812 15.273438 38.671875 15.132812 38.390625 15.242188 C 38.109375 15.355469 37.96875 15.695312 38.082031 15.976562 C 38.222656 16.3125 38.335938 16.679688 38.476562 17.015625 Z M 38.476562 17.015625 " fill-opacity="1" fill-rule="nonzero"/><path fill="rgb(100%, 100%, 100%)" d="M 6.160156 16.367188 C 6.214844 16.398438 6.300781 16.425781 6.382812 16.425781 C 6.609375 16.425781 6.804688 16.285156 6.917969 16.085938 C 7.058594 15.75 7.199219 15.414062 7.367188 15.074219 C 7.507812 14.792969 7.398438 14.457031 7.117188 14.316406 C 6.835938 14.175781 6.496094 14.289062 6.355469 14.570312 C 6.1875 14.90625 6.019531 15.273438 5.878906 15.636719 C 5.738281 15.917969 5.878906 16.257812 6.160156 16.367188 Z M 6.160156 16.367188 " fill-opacity="1" fill-rule="nonzero"/><path fill="rgb(100%, 100%, 100%)" d="M 35.15625 11.335938 C 35.351562 11.558594 35.71875 11.585938 35.945312 11.390625 C 36.167969 11.195312 36.195312 10.828125 36 10.601562 C 35.746094 10.320312 35.464844 10.011719 35.183594 9.757812 C 34.960938 9.535156 34.621094 9.535156 34.398438 9.757812 C 34.171875 9.984375 34.171875 10.320312 34.398438 10.546875 C 34.648438 10.800781 34.902344 11.054688 35.15625 11.335938 Z M 35.15625 11.335938 " fill-opacity="1" fill-rule="nonzero"/><g clip-path="url(#id6)"><path fill="rgb(100%, 100%, 100%)" d="M 5.148438 24.242188 C 4.835938 24.273438 4.613281 24.554688 4.667969 24.863281 C 4.726562 25.257812 4.78125 25.648438 4.867188 26.015625 C 4.921875 26.296875 5.148438 26.464844 5.429688 26.464844 C 5.457031 26.464844 5.511719 26.464844 5.539062 26.464844 C 5.851562 26.410156 6.046875 26.101562 5.992188 25.789062 C 5.90625 25.425781 5.851562 25.058594 5.820312 24.695312 C 5.738281 24.414062 5.457031 24.214844 5.148438 24.242188 Z M 5.148438 24.242188 " fill-opacity="1" fill-rule="nonzero"/></g><g clip-path="url(#id7)"><path fill="rgb(100%, 100%, 100%)" d="M 17.859375 39.910156 C 18.226562 40.023438 18.617188 40.105469 19.011719 40.164062 C 19.320312 40.21875 19.601562 40.023438 19.660156 39.710938 C 19.714844 39.402344 19.519531 39.121094 19.210938 39.066406 C 18.84375 38.980469 18.476562 38.925781 18.140625 38.8125 C 17.832031 38.726562 17.523438 38.925781 17.464844 39.207031 C 17.382812 39.515625 17.550781 39.824219 17.859375 39.910156 Z M 17.859375 39.910156 " fill-opacity="1" fill-rule="nonzero"/></g><path fill="rgb(100%, 100%, 100%)" d="M 15.273438 6.609375 C 15.355469 6.835938 15.582031 6.945312 15.777344 6.945312 C 15.863281 6.945312 15.917969 6.945312 16.003906 6.890625 C 16.339844 6.75 16.679688 6.609375 17.042969 6.496094 C 17.324219 6.382812 17.492188 6.074219 17.382812 5.792969 C 17.269531 5.511719 16.960938 5.34375 16.679688 5.457031 C 16.3125 5.570312 15.945312 5.710938 15.582031 5.878906 C 15.273438 5.992188 15.160156 6.328125 15.273438 6.609375 Z M 15.273438 6.609375 " fill-opacity="1" fill-rule="nonzero"/><path fill="rgb(100%, 100%, 100%)" d="M 15.046875 37.660156 C 14.765625 37.519531 14.429688 37.632812 14.289062 37.914062 C 14.148438 38.195312 14.257812 38.53125 14.539062 38.671875 C 14.90625 38.839844 15.242188 39.007812 15.609375 39.148438 C 15.890625 39.261719 16.226562 39.121094 16.339844 38.839844 C 16.453125 38.558594 16.3125 38.222656 16.03125 38.109375 C 15.722656 37.96875 15.382812 37.800781 15.046875 37.660156 Z M 15.046875 37.660156 " fill-opacity="1" fill-rule="nonzero"/><g clip-path="url(#id8)"><path fill="rgb(100%, 100%, 100%)" d="M 5.289062 19.6875 C 5.316406 19.6875 5.371094 19.6875 5.398438 19.6875 C 5.652344 19.6875 5.90625 19.492188 5.960938 19.238281 C 6.019531 18.871094 6.101562 18.507812 6.214844 18.167969 C 6.300781 17.859375 6.101562 17.550781 5.820312 17.492188 C 5.511719 17.410156 5.203125 17.605469 5.148438 17.886719 C 5.035156 18.253906 4.949219 18.648438 4.894531 19.039062 C 4.78125 19.320312 4.976562 19.632812 5.289062 19.6875 Z M 5.289062 19.6875 " fill-opacity="1" fill-rule="nonzero"/></g><g clip-path="url(#id9)"><path fill="rgb(100%, 100%, 100%)" d="M 24.863281 40.359375 C 25.257812 40.304688 25.648438 40.246094 26.015625 40.164062 C 26.296875 40.105469 26.492188 39.824219 26.464844 39.542969 C 26.269531 39.402344 26.101562 39.234375 25.929688 39.066406 C 25.902344 39.066406 25.847656 39.066406 25.820312 39.066406 C 25.453125 39.148438 25.085938 39.207031 24.722656 39.234375 C 24.414062 39.261719 24.1875 39.542969 24.242188 39.851562 C 24.273438 40.164062 24.554688 40.386719 24.863281 40.359375 Z M 24.863281 40.359375 " fill-opacity="1" fill-rule="nonzero"/></g><g clip-path="url(#id10)"><path fill="rgb(100%, 100%, 100%)" d="M 22.5 39.375 C 22.132812 39.375 21.769531 39.375 21.402344 39.347656 C 21.09375 39.320312 20.8125 39.570312 20.8125 39.882812 C 20.785156 40.191406 21.039062 40.472656 21.347656 40.472656 C 21.742188 40.5 22.105469 40.5 22.5 40.5 C 22.808594 40.5 23.089844 40.246094 23.089844 39.9375 C 23.089844 39.628906 22.835938 39.375 22.5 39.375 Z M 22.5 39.375 " fill-opacity="1" fill-rule="nonzero"/></g><g clip-path="url(#id11)"><path fill="rgb(100%, 100%, 100%)" d="M 18.507812 5.511719 C 18.5625 5.792969 18.789062 5.960938 19.070312 5.960938 C 19.097656 5.960938 19.152344 5.960938 19.179688 5.960938 C 19.546875 5.878906 19.914062 5.820312 20.277344 5.792969 C 20.585938 5.765625 20.8125 5.457031 20.757812 5.175781 C 20.726562 4.867188 20.445312 4.640625 20.136719 4.695312 C 19.742188 4.753906 19.351562 4.808594 18.984375 4.894531 C 18.648438 4.921875 18.449219 5.203125 18.507812 5.511719 Z M 18.507812 5.511719 " fill-opacity="1" fill-rule="nonzero"/></g><path fill="rgb(100%, 100%, 100%)" d="M 12.769531 8.578125 C 12.882812 8.578125 12.992188 8.550781 13.078125 8.492188 C 13.386719 8.296875 13.695312 8.101562 14.007812 7.902344 C 14.289062 7.734375 14.371094 7.398438 14.203125 7.144531 C 14.035156 6.863281 13.695312 6.777344 13.445312 6.945312 C 13.105469 7.144531 12.769531 7.339844 12.460938 7.566406 C 12.207031 7.734375 12.121094 8.101562 12.320312 8.351562 C 12.429688 8.492188 12.601562 8.578125 12.769531 8.578125 Z M 12.769531 8.578125 " fill-opacity="1" fill-rule="nonzero"/><path fill="rgb(100%, 100%, 100%)" d="M 5.878906 29.417969 C 5.960938 29.644531 6.1875 29.757812 6.382812 29.757812 C 6.46875 29.757812 6.523438 29.757812 6.609375 29.699219 C 6.890625 29.585938 7.03125 29.25 6.917969 28.96875 C 6.777344 28.632812 6.636719 28.292969 6.523438 27.929688 C 6.414062 27.648438 6.101562 27.476562 5.820312 27.589844 C 5.539062 27.703125 5.371094 28.011719 5.484375 28.292969 C 5.597656 28.6875 5.738281 29.054688 5.878906 29.417969 Z M 5.878906 29.417969 " fill-opacity="1" fill-rule="nonzero"/><g clip-path="url(#id12)"><path fill="rgb(100%, 100%, 100%)" d="M 5.0625 23.089844 C 5.371094 23.089844 5.625 22.835938 5.625 22.527344 L 5.625 22.5 C 5.625 22.132812 5.625 21.769531 5.652344 21.429688 C 5.679688 21.121094 5.429688 20.839844 5.117188 20.839844 C 4.808594 20.8125 4.527344 21.066406 4.527344 21.375 C 4.5 21.742188 4.5 22.105469 4.5 22.5 L 4.5 22.527344 C 4.5 22.835938 4.753906 23.089844 5.0625 23.089844 Z M 5.0625 23.089844 " fill-opacity="1" fill-rule="nonzero"/></g><path fill="rgb(100%, 100%, 100%)" d="M 7.539062 32.511719 C 7.648438 32.679688 7.820312 32.765625 8.015625 32.765625 C 8.128906 32.765625 8.242188 32.738281 8.324219 32.679688 C 8.578125 32.511719 8.664062 32.148438 8.464844 31.894531 C 8.269531 31.585938 8.070312 31.273438 7.875 30.964844 C 7.707031 30.683594 7.367188 30.601562 7.117188 30.769531 C 6.835938 30.9375 6.75 31.273438 6.917969 31.527344 C 7.117188 31.867188 7.339844 32.203125 7.539062 32.511719 Z M 7.539062 32.511719 " fill-opacity="1" fill-rule="nonzero"/><path fill="rgb(100%, 100%, 100%)" d="M 9.789062 35.242188 C 10.011719 35.464844 10.378906 35.464844 10.574219 35.242188 C 10.800781 35.015625 10.800781 34.679688 10.574219 34.453125 C 10.320312 34.199219 10.070312 33.917969 9.816406 33.636719 C 9.617188 33.414062 9.253906 33.382812 9.027344 33.582031 C 8.804688 33.777344 8.773438 34.144531 8.972656 34.367188 C 9.253906 34.679688 9.507812 34.960938 9.789062 35.242188 Z M 9.789062 35.242188 " fill-opacity="1" fill-rule="nonzero"/><path fill="rgb(100%, 100%, 100%)" d="M 12.234375 35.886719 C 11.980469 35.691406 11.644531 35.746094 11.445312 36 C 11.25 36.253906 11.304688 36.589844 11.558594 36.789062 C 11.867188 37.011719 12.207031 37.265625 12.515625 37.460938 C 12.769531 37.632812 13.132812 37.574219 13.304688 37.292969 C 13.472656 37.039062 13.414062 36.675781 13.132812 36.507812 C 12.824219 36.335938 12.542969 36.113281 12.234375 35.886719 Z M 12.234375 35.886719 " fill-opacity="1" fill-rule="nonzero"/><path fill="rgb(100%, 100%, 100%)" d="M 26.632812 21.402344 L 31.050781 22.273438 C 31.5 22.332031 31.835938 22.667969 31.894531 23.0625 C 32.035156 23.0625 32.203125 23.0625 32.34375 23.0625 C 32.570312 23.0625 32.820312 23.0625 33.046875 23.089844 L 33.019531 22.921875 C 32.90625 22.023438 32.175781 21.320312 31.273438 21.179688 L 26.886719 20.304688 C 26.664062 20.277344 26.464844 20.136719 26.324219 19.996094 C 26.015625 20.195312 25.679688 20.390625 25.3125 20.53125 C 25.59375 20.980469 26.070312 21.320312 26.632812 21.402344 Z M 26.632812 21.402344 " fill-opacity="1" fill-rule="nonzero"/><path fill="rgb(100%, 100%, 100%)" d="M 23.34375 30.09375 L 11.585938 30.09375 C 11.585938 30.09375 11.558594 30.09375 11.558594 30.066406 C 11.53125 30.039062 11.558594 30.039062 11.558594 30.007812 L 13.132812 23.117188 C 13.132812 23.089844 13.132812 23.089844 13.132812 23.0625 C 13.191406 22.667969 13.527344 22.332031 13.976562 22.246094 L 18.367188 21.375 C 18.929688 21.261719 19.40625 20.953125 19.742188 20.476562 C 19.378906 20.335938 19.039062 20.136719 18.730469 19.941406 C 18.589844 20.109375 18.394531 20.222656 18.167969 20.277344 L 13.78125 21.179688 C 12.851562 21.320312 12.121094 22.050781 12.007812 22.921875 L 10.433594 29.785156 C 10.351562 30.121094 10.433594 30.488281 10.660156 30.769531 C 10.882812 31.050781 11.222656 31.21875 11.585938 31.21875 L 23.148438 31.21875 C 23.175781 30.824219 23.257812 30.460938 23.34375 30.09375 Z M 23.34375 30.09375 " fill-opacity="1" fill-rule="nonzero"/><g clip-path="url(#id13)"><path fill="rgb(100%, 100%, 100%)" d="M 32.34375 24.1875 C 27.84375 24.1875 24.1875 27.84375 24.1875 32.34375 C 24.1875 36.84375 27.84375 40.5 32.34375 40.5 C 36.84375 40.5 40.5 36.84375 40.5 32.34375 C 40.5 27.84375 36.84375 24.1875 32.34375 24.1875 Z M 36.449219 29.585938 L 31.667969 35.773438 C 31.554688 35.914062 31.386719 36 31.21875 36 C 31.105469 36 30.992188 35.972656 30.882812 35.886719 L 27.789062 33.554688 C 27.535156 33.355469 27.476562 33.019531 27.675781 32.765625 C 27.871094 32.511719 28.210938 32.457031 28.460938 32.652344 L 31.105469 34.648438 L 35.550781 28.914062 C 35.746094 28.660156 36.085938 28.632812 36.335938 28.800781 C 36.589844 28.996094 36.648438 29.335938 36.449219 29.585938 Z M 36.449219 29.585938 " fill-opacity="1" fill-rule="nonzero"/></g><path fill="rgb(100%, 100%, 100%)" d="M 23.457031 21.039062 C 23.148438 21.066406 22.808594 21.09375 22.5 21.09375 C 22.191406 21.09375 21.851562 21.066406 21.542969 21.039062 L 20.839844 25.566406 C 20.8125 25.734375 20.867188 25.875 20.953125 26.015625 L 22.050781 27.335938 C 22.273438 27.617188 22.695312 27.617188 22.921875 27.335938 L 24.019531 26.015625 C 24.132812 25.902344 24.160156 25.734375 24.132812 25.566406 Z M 23.457031 21.039062 " fill-opacity="1" fill-rule="nonzero"/></svg>