<svg xmlns="http://www.w3.org/2000/svg" xmlns:xlink="http://www.w3.org/1999/xlink" width="60" zoomAndPan="magnify" viewBox="0 0 45 44.999999" height="60" preserveAspectRatio="xMidYMid meet" version="1.0"><defs><clipPath id="id1"><path d="M 5.085938 6 L 39.585938 6 L 39.585938 30 L 5.085938 30 Z M 5.085938 6 " clip-rule="nonzero"/></clipPath><clipPath id="id2"><path d="M 11 21 L 33 21 L 33 39.277344 L 11 39.277344 Z M 11 21 " clip-rule="nonzero"/></clipPath></defs><rect x="-4.5" width="54" fill="rgb(100%, 100%, 100%)" y="-4.5" height="53.999999" fill-opacity="1"/><rect x="-4.5" width="54" fill="rgb(100%, 100%, 100%)" y="-4.5" height="53.999999" fill-opacity="1"/><rect x="-4.5" width="54" fill="rgb(100%, 100%, 100%)" y="-4.5" height="53.999999" fill-opacity="1"/><path fill="rgb(100%, 34.118652%, 34.118652%)" d="M 22.5 0 C 10.074219 0 0 10.074219 0 22.5 C 0 34.925781 10.074219 45 22.5 45 C 34.925781 45 45 34.925781 45 22.5 C 45 10.074219 34.925781 0 22.5 0 " fill-opacity="1" fill-rule="nonzero"/><g clip-path="url(#id1)"><path fill="rgb(100%, 100%, 100%)" d="M 16.652344 25.984375 L 19.113281 16.402344 C 19.246094 15.890625 19.71875 15.488281 20.238281 15.558594 C 20.761719 15.578125 21.203125 15.964844 21.296875 16.480469 L 23.566406 29.015625 L 24.832031 26.585938 C 25.023438 26.214844 25.40625 25.980469 25.824219 25.980469 L 34.789062 25.980469 L 37.140625 23.363281 C 37.21875 23.269531 37.285156 23.167969 37.335938 23.058594 C 38.589844 20.90625 39.546875 19.046875 39.546875 16.582031 C 39.546875 11.269531 35.175781 6.785156 30 6.785156 C 26.890625 6.785156 24.101562 8.195312 22.339844 10.558594 C 20.554688 8.125 17.714844 6.628906 14.671875 6.628906 C 9.5 6.628906 5.125 11.195312 5.125 16.609375 C 5.125 19.050781 6.035156 20.832031 7.332031 23.042969 C 7.378906 23.160156 7.449219 23.265625 7.535156 23.363281 L 9.890625 25.980469 Z M 16.652344 25.984375 " fill-opacity="1" fill-rule="nonzero"/></g><g clip-path="url(#id2)"><path fill="rgb(100%, 100%, 100%)" d="M 26.503906 28.230469 L 24.050781 32.960938 C 23.855469 33.335938 23.46875 33.566406 23.054688 33.566406 C 23 33.566406 22.941406 33.5625 22.890625 33.550781 C 22.414062 33.480469 22.039062 33.113281 21.957031 32.640625 L 20.011719 21.910156 L 18.601562 27.382812 C 18.476562 27.878906 18.027344 28.226562 17.519531 28.226562 L 11.914062 28.226562 L 21.523438 38.902344 C 21.738281 39.136719 22.039062 39.269531 22.355469 39.269531 C 22.671875 39.269531 22.976562 39.136719 23.1875 38.898438 L 32.773438 28.226562 Z M 26.503906 28.230469 " fill-opacity="1" fill-rule="nonzero"/></g></svg>