<svg xmlns="http://www.w3.org/2000/svg" xmlns:xlink="http://www.w3.org/1999/xlink" width="60" zoomAndPan="magnify" viewBox="0 0 45 44.999999" height="60" preserveAspectRatio="xMidYMid meet" version="1.0"><defs><clipPath id="id1"><path d="M 6.296875 6.296875 L 38.546875 6.296875 L 38.546875 38.546875 L 6.296875 38.546875 Z M 6.296875 6.296875 " clip-rule="nonzero"/></clipPath></defs><rect x="-4.5" width="54" fill="rgb(100%, 100%, 100%)" y="-4.5" height="53.999999" fill-opacity="1"/><rect x="-4.5" width="54" fill="rgb(100%, 100%, 100%)" y="-4.5" height="53.999999" fill-opacity="1"/><rect x="-4.5" width="54" fill="rgb(100%, 100%, 100%)" y="-4.5" height="53.999999" fill-opacity="1"/><path fill="rgb(32.939148%, 32.939148%, 32.939148%)" d="M 22.5 0 C 10.074219 0 0 10.074219 0 22.5 C 0 34.925781 10.074219 45 22.5 45 C 34.925781 45 45 34.925781 45 22.5 C 45 10.074219 34.925781 0 22.5 0 " fill-opacity="1" fill-rule="nonzero"/><g clip-path="url(#id1)"><path fill="rgb(100%, 100%, 100%)" d="M 21.410156 6.332031 C 21.074219 6.328125 20.78125 6.570312 20.722656 6.902344 L 20.339844 8.988281 C 20.015625 9.09375 19.699219 9.222656 19.390625 9.375 L 17.675781 8.140625 C 17.402344 7.941406 17.023438 7.96875 16.78125 8.210938 L 15.292969 9.671875 C 15.054688 9.914062 15.019531 10.289062 15.210938 10.566406 L 16.414062 12.308594 C 16.257812 12.613281 16.125 12.929688 16.019531 13.253906 L 13.929688 13.589844 C 13.597656 13.644531 13.347656 13.929688 13.347656 14.273438 L 13.332031 16.363281 C 13.328125 16.703125 13.570312 16.992188 13.902344 17.050781 L 15.996094 17.433594 C 16.097656 17.757812 16.230469 18.070312 16.382812 18.378906 L 15.140625 20.097656 C 14.941406 20.371094 14.96875 20.753906 15.207031 20.996094 L 16.675781 22.480469 C 16.914062 22.71875 17.289062 22.753906 17.566406 22.5625 L 19.328125 21.347656 C 19.632812 21.503906 19.945312 21.632812 20.269531 21.738281 L 20.628906 23.847656 C 20.683594 24.183594 20.96875 24.429688 21.308594 24.429688 L 23.398438 24.441406 C 23.738281 24.445312 24.03125 24.199219 24.089844 23.863281 L 24.445312 21.753906 C 24.761719 21.652344 25.074219 21.527344 25.375 21.375 L 27.125 22.617188 C 27.402344 22.8125 27.777344 22.78125 28.015625 22.542969 L 29.503906 21.078125 C 29.746094 20.835938 29.78125 20.457031 29.582031 20.175781 L 28.339844 18.433594 C 28.496094 18.132812 28.625 17.824219 28.734375 17.507812 L 30.851562 17.148438 C 31.183594 17.09375 31.429688 16.804688 31.429688 16.464844 L 31.441406 14.378906 C 31.445312 14.039062 31.199219 13.746094 30.863281 13.6875 L 28.761719 13.332031 C 28.660156 13.011719 28.53125 12.699219 28.382812 12.390625 L 29.617188 10.648438 C 29.816406 10.371094 29.785156 9.996094 29.546875 9.753906 L 28.078125 8.269531 C 27.835938 8.03125 27.457031 7.996094 27.179688 8.191406 L 25.453125 9.417969 C 25.148438 9.261719 24.839844 9.132812 24.519531 9.027344 L 24.183594 6.929688 C 24.128906 6.59375 23.839844 6.34375 23.496094 6.34375 Z M 21.988281 7.726562 L 22.902344 7.734375 L 23.203125 9.617188 C 23.246094 9.890625 23.453125 10.113281 23.71875 10.179688 C 24.230469 10.308594 24.722656 10.519531 25.183594 10.800781 C 25.421875 10.945312 25.722656 10.9375 25.949219 10.773438 L 27.503906 9.671875 L 28.144531 10.320312 L 27.027344 11.886719 C 26.867188 12.113281 26.855469 12.410156 26.996094 12.648438 C 27.269531 13.113281 27.472656 13.609375 27.59375 14.117188 C 27.65625 14.386719 27.878906 14.59375 28.15625 14.644531 L 30.046875 14.960938 L 30.042969 15.875 L 28.132812 16.195312 C 27.859375 16.242188 27.640625 16.445312 27.570312 16.710938 C 27.441406 17.21875 27.238281 17.707031 26.957031 18.164062 C 26.8125 18.40625 26.824219 18.707031 26.988281 18.933594 L 28.101562 20.503906 L 27.457031 21.140625 L 25.875 20.019531 C 25.648438 19.859375 25.351562 19.847656 25.117188 19.992188 C 24.652344 20.265625 24.164062 20.460938 23.65625 20.585938 C 23.382812 20.652344 23.179688 20.871094 23.132812 21.148438 L 22.8125 23.046875 L 21.902344 23.039062 L 21.582031 21.132812 C 21.535156 20.863281 21.332031 20.640625 21.058594 20.574219 C 20.554688 20.449219 20.0625 20.242188 19.597656 19.964844 C 19.363281 19.824219 19.066406 19.832031 18.84375 19.992188 L 17.253906 21.085938 L 16.613281 20.433594 L 17.730469 18.890625 C 17.894531 18.664062 17.910156 18.359375 17.765625 18.121094 C 17.488281 17.65625 17.289062 17.160156 17.164062 16.648438 C 17.097656 16.382812 16.882812 16.179688 16.609375 16.128906 L 14.726562 15.789062 L 14.734375 14.871094 L 16.609375 14.570312 C 16.886719 14.527344 17.109375 14.324219 17.175781 14.054688 C 17.308594 13.539062 17.511719 13.042969 17.792969 12.582031 C 17.9375 12.347656 17.929688 12.046875 17.773438 11.824219 L 16.691406 10.253906 L 17.339844 9.613281 L 18.878906 10.722656 C 19.101562 10.886719 19.402344 10.902344 19.640625 10.761719 C 20.109375 10.480469 20.609375 10.28125 21.121094 10.15625 C 21.390625 10.09375 21.59375 9.878906 21.644531 9.609375 Z M 22.378906 11.929688 C 21.484375 11.921875 20.585938 12.257812 19.902344 12.9375 C 18.539062 14.285156 18.527344 16.507812 19.875 17.875 C 21.226562 19.242188 23.453125 19.253906 24.816406 17.902344 C 26.183594 16.554688 26.195312 14.328125 24.84375 12.960938 C 24.167969 12.28125 23.273438 11.933594 22.378906 11.929688 Z M 22.375 13.3125 C 22.910156 13.316406 23.441406 13.527344 23.855469 13.941406 C 24.675781 14.773438 24.667969 16.09375 23.835938 16.910156 C 23.007812 17.734375 21.6875 17.726562 20.867188 16.898438 C 20.042969 16.066406 20.054688 14.746094 20.882812 13.925781 C 21.300781 13.515625 21.835938 13.3125 22.375 13.3125 Z M 15.019531 24.441406 C 13.203125 24.441406 12.363281 24.878906 11.460938 25.226562 C 11.460938 25.230469 11.460938 25.230469 11.460938 25.230469 C 9.726562 25.902344 6.761719 27.300781 6.761719 27.300781 C 6.414062 27.464844 6.261719 27.882812 6.425781 28.230469 C 6.59375 28.578125 7.007812 28.726562 7.355469 28.5625 C 7.355469 28.5625 10.34375 27.15625 11.964844 26.527344 C 12.964844 26.136719 13.398438 25.835938 15.019531 25.835938 C 18.59375 25.835938 18.449219 27.386719 19.953125 28.273438 C 19.976562 28.285156 20 28.300781 20.027344 28.308594 C 21.894531 29.148438 23.902344 29.316406 25.523438 29.316406 C 26.238281 29.316406 26.6875 29.484375 26.933594 29.667969 C 27.175781 29.855469 27.261719 30.050781 27.261719 30.363281 C 27.261719 30.730469 27.171875 30.90625 26.929688 31.082031 C 26.6875 31.253906 26.226562 31.40625 25.523438 31.40625 L 21.863281 31.40625 C 20.332031 31.40625 17.6875 30.734375 17.6875 30.734375 C 17.449219 30.667969 17.191406 30.738281 17.015625 30.914062 C 16.835938 31.09375 16.769531 31.351562 16.835938 31.589844 C 16.902344 31.832031 17.09375 32.019531 17.335938 32.082031 C 17.335938 32.082031 19.953125 32.800781 21.863281 32.800781 L 25.523438 32.800781 C 26.230469 32.800781 26.851562 32.683594 27.367188 32.429688 C 27.433594 32.410156 27.5 32.378906 27.558594 32.339844 L 34.164062 28.003906 C 35.15625 27.429688 35.835938 27.269531 36.230469 27.273438 C 36.628906 27.28125 36.765625 27.402344 36.882812 27.554688 C 37.0625 27.785156 37.070312 27.871094 36.957031 28.132812 C 36.839844 28.402344 36.5 28.8125 35.886719 29.238281 C 35.128906 29.765625 26.671875 35.277344 25.691406 35.832031 C 24.957031 36.25 24.371094 36.691406 23.703125 36.878906 C 23.039062 37.0625 22.25 37.0625 20.949219 36.445312 C 20.082031 36.027344 16.386719 34.132812 15.191406 33.527344 C 14.523438 33.191406 13.957031 33 13.375 33.03125 C 12.792969 33.066406 12.300781 33.3125 11.792969 33.632812 C 11.789062 33.632812 11.785156 33.636719 11.785156 33.640625 L 10.0625 34.742188 C 9.84375 34.871094 9.714844 35.109375 9.722656 35.363281 C 9.734375 35.617188 9.878906 35.84375 10.105469 35.960938 C 10.332031 36.074219 10.601562 36.058594 10.8125 35.914062 L 12.53125 34.8125 C 12.972656 34.535156 13.222656 34.4375 13.453125 34.421875 C 13.679688 34.410156 13.992188 34.480469 14.5625 34.769531 C 15.75 35.371094 19.386719 37.238281 20.351562 37.699219 C 21.867188 38.425781 23.09375 38.492188 24.078125 38.222656 C 25.058594 37.945312 25.757812 37.394531 26.382812 37.042969 C 27.726562 36.277344 35.710938 31.054688 36.683594 30.378906 C 37.421875 29.863281 37.960938 29.328125 38.238281 28.6875 C 38.511719 28.042969 38.421875 27.261719 37.984375 26.699219 C 37.636719 26.257812 37.027344 25.898438 36.253906 25.882812 C 35.816406 25.875 35.332031 25.972656 34.789062 26.171875 C 34.6875 26.039062 34.535156 25.867188 34.328125 25.710938 C 33.921875 25.410156 33.277344 25.140625 32.398438 25.140625 C 31.953125 25.140625 31.585938 25.242188 31.289062 25.363281 C 30.871094 24.964844 30.128906 24.457031 29.046875 24.457031 C 28.171875 24.457031 27.351562 24.75 26.777344 25.085938 C 26.671875 25.148438 26.417969 25.308594 25.980469 25.582031 C 25.546875 25.855469 24.976562 26.207031 24.417969 26.554688 C 23.523438 27.113281 22.96875 27.460938 22.644531 27.664062 C 21.964844 27.527344 21.28125 27.335938 20.636719 27.050781 C 20.085938 26.699219 19.027344 24.441406 15.019531 24.441406 Z M 29.046875 25.847656 C 29.488281 25.847656 29.804688 25.960938 30.027344 26.089844 L 26.804688 28.089844 C 26.421875 27.980469 25.992188 27.925781 25.523438 27.925781 C 25.320312 27.925781 25.101562 27.910156 24.890625 27.902344 C 25.019531 27.820312 25.019531 27.820312 25.15625 27.738281 C 25.714844 27.390625 26.28125 27.035156 26.71875 26.761719 C 27.15625 26.492188 27.511719 26.273438 27.488281 26.285156 C 27.816406 26.089844 28.53125 25.847656 29.046875 25.847656 Z M 32.398438 26.53125 C 32.964844 26.53125 33.269531 26.675781 33.457031 26.804688 C 33.445312 26.808594 33.4375 26.816406 33.425781 26.824219 L 28.613281 29.980469 C 28.546875 29.589844 28.386719 29.21875 28.132812 28.90625 L 31.496094 26.820312 L 31.5 26.816406 C 31.527344 26.800781 32.109375 26.53125 32.398438 26.53125 Z M 32.398438 26.53125 " fill-opacity="1" fill-rule="nonzero"/></g></svg>