<svg xmlns="http://www.w3.org/2000/svg" xmlns:xlink="http://www.w3.org/1999/xlink" width="60" zoomAndPan="magnify" viewBox="0 0 45 44.999999" height="60" preserveAspectRatio="xMidYMid meet" version="1.0"><defs><clipPath id="id1"><path d="M 5.824219 7.679688 L 38.824219 7.679688 L 38.824219 37.679688 L 5.824219 37.679688 Z M 5.824219 7.679688 " clip-rule="nonzero"/></clipPath></defs><rect x="-4.5" width="54" fill="rgb(100%, 100%, 100%)" y="-4.5" height="53.999999" fill-opacity="1"/><rect x="-4.5" width="54" fill="rgb(100%, 100%, 100%)" y="-4.5" height="53.999999" fill-opacity="1"/><rect x="-4.5" width="54" fill="rgb(100%, 100%, 100%)" y="-4.5" height="53.999999" fill-opacity="1"/><path fill="rgb(79.998779%, 47.059631%, 89.408875%)" d="M 22.5 0 C 10.074219 0 0 10.074219 0 22.5 C 0 34.925781 10.074219 45 22.5 45 C 34.925781 45 45 34.925781 45 22.5 C 45 10.074219 34.925781 0 22.5 0 " fill-opacity="1" fill-rule="nonzero"/><g clip-path="url(#id1)"><path fill="rgb(100%, 100%, 100%)" d="M 35.011719 9.574219 C 34.636719 8.46875 33.609375 7.679688 32.410156 7.679688 L 12.242188 7.679688 C 11.039062 7.679688 10.015625 8.46875 9.636719 9.574219 L 5.824219 20.804688 L 5.824219 35.804688 C 5.824219 36.835938 6.648438 37.679688 7.660156 37.679688 L 9.492188 37.679688 C 10.507812 37.679688 11.324219 36.835938 11.324219 35.804688 L 11.324219 33.929688 L 33.324219 33.929688 L 33.324219 35.804688 C 33.324219 36.835938 34.148438 37.679688 35.160156 37.679688 L 36.992188 37.679688 C 38.007812 37.679688 38.824219 36.835938 38.824219 35.804688 L 38.824219 20.804688 Z M 12.242188 28.304688 C 10.71875 28.304688 9.492188 27.046875 9.492188 25.492188 C 9.492188 23.9375 10.71875 22.679688 12.242188 22.679688 C 13.761719 22.679688 14.992188 23.9375 14.992188 25.492188 C 14.992188 27.046875 13.761719 28.304688 12.242188 28.304688 Z M 32.410156 28.304688 C 30.886719 28.304688 29.660156 27.046875 29.660156 25.492188 C 29.660156 23.9375 30.886719 22.679688 32.410156 22.679688 C 33.929688 22.679688 35.160156 23.9375 35.160156 25.492188 C 35.160156 27.046875 33.929688 28.304688 32.410156 28.304688 Z M 9.492188 18.929688 L 12.242188 10.492188 L 32.410156 10.492188 L 35.160156 18.929688 Z M 9.492188 18.929688 " fill-opacity="1" fill-rule="nonzero"/></g></svg>